<?xml version="1.0" encoding="UTF-8"?>
<svg width="208.2975px" height="292.229px" viewBox="0 0 208.2975 292.229" version="1.1" xmlns="http://www.w3.org/2000/svg" xmlns:xlink="http://www.w3.org/1999/xlink">
    <title>Group 38</title>
    <defs>
        <polygon id="path-1" points="0 292.229 208.298 292.229 208.298 0 0 0"></polygon>
    </defs>
    <g id="Page-1" stroke="none" stroke-width="1" fill="none" fill-rule="evenodd">
        <g id="Group-38" transform="translate(-0.000400, 0.000000)">
            <path d="M17.7573,29.4024 C17.7363,31.3294 16.8383,33.5144 15.6623,34.6294 C14.7433,35.5104 12.9953,36.3914 11.0763,36.4694 C7.6213,36.5994 5.2083,33.9034 4.3753,29.8974 C4.2043,29.0114 4.0763,27.8144 4.0763,26.5644 C4.0763,25.2884 4.1823,23.9864 4.4393,22.9194 C5.3153,19.3794 7.1743,16.5964 11.2033,16.5964 C12.3123,16.5964 13.8693,16.7524 15.3843,18.0794 C17.6293,19.9254 17.7363,22.3724 17.7573,23.3364 L14.7013,23.3364 C14.6153,22.2684 13.8903,19.5874 10.7773,19.8734 C9.3273,20.0034 8.1973,21.2784 7.6853,22.8934 C7.4723,23.5704 7.2593,24.8194 7.1943,26.1734 C7.1523,27.5274 7.2593,28.9854 7.6853,30.1574 C8.1973,31.5374 8.9013,32.3704 9.6903,32.8134 C10.0953,33.0214 10.5003,33.1254 10.9473,33.1254 C11.3743,33.1514 11.8433,33.0734 12.2913,32.9174 C14.5083,32.1624 14.5723,30.2354 14.7013,29.4024 L17.7573,29.4024 Z" id="Fill-1" fill="#020203"></path>
            <polygon id="Fill-3" fill="#020203" points="46.4931 16.9067 46.4931 20.1567 38.4341 20.1567 38.4341 24.5007 45.8751 24.5007 45.8751 27.7507 38.4341 27.7507 38.4341 32.6257 46.8551 32.6257 46.8551 35.8757 35.2461 35.8757 35.2461 16.9067"></polygon>
            <path d="M64.5288,35.8755 L67.7168,35.8755 L67.7168,28.3755 L71.4798,28.3755 C72.5918,28.3755 73.3608,29.0025 73.4038,30.2805 C73.3608,31.6645 73.3608,33.1785 73.4038,34.1175 C73.4468,34.7445 73.5738,35.3155 73.8288,35.8755 L77.2508,35.8755 L77.2508,35.1885 C76.9098,34.9275 76.6538,34.6915 76.6538,33.6225 C76.6328,32.6565 76.5898,30.1505 76.5048,29.3675 C76.3358,27.6475 75.3158,27.1795 74.7848,26.7375 C75.8268,25.9835 76.5078,25.3855 76.8898,23.7465 C77.2738,22.1075 76.9538,20.7555 76.7408,19.9225 C76.2948,17.8685 74.7208,16.9845 73.1648,16.9065 L64.5288,16.9065 L64.5288,35.8755 Z M67.7168,20.1565 L72.0528,20.1565 C73.4848,20.1565 73.9978,20.9375 73.9978,22.2905 C74.1888,24.1635 72.8438,25.1255 72.0958,25.1255 L67.7168,25.1255 L67.7168,20.1565 Z" id="Fill-5" fill="#020203"></path>
            <polygon id="Fill-7" fill="#020203" points="105.9624 16.9067 105.9624 20.1567 101.4214 20.1567 101.4214 35.8757 98.2334 35.8757 98.2334 20.1567 93.5214 20.1567 93.5214 16.9067"></polygon>
            <mask id="mask-2" fill="white">
                <use xlink:href="#path-1"></use>
            </mask>
            <g id="Clip-10"></g>
            <polygon id="Fill-9" fill="#020203" mask="url(#mask-2)" points="122.635 35.876 125.822 35.876 125.822 16.907 122.635 16.907"></polygon>
            <polygon id="Fill-11" fill="#020203" mask="url(#mask-2)" points="154.7475 16.9067 154.7475 20.1567 147.0295 20.1567 147.0295 24.5007 153.8315 24.5007 153.8315 27.7507 147.0295 27.7507 147.0295 35.8757 143.8425 35.8757 143.8425 16.9067"></polygon>
            <polygon id="Fill-12" fill="#020203" mask="url(#mask-2)" points="171.649 35.876 174.837 35.876 174.837 16.907 171.649 16.907"></polygon>
            <path d="M204.1987,16.9067 L204.1987,20.1567 L196.1387,20.1567 L196.1387,24.5007 L203.5797,24.5007 L203.5797,27.7507 L196.1387,27.7507 L196.1387,32.6257 L204.5597,32.6257 L204.5597,35.8757 L192.9517,35.8757 L192.9517,16.9067 L204.1987,16.9067 Z M199.3527,11.5377 L202.0187,11.5377 L199.3087,15.4377 L197.8377,15.4377 L199.3527,11.5377 Z" id="Fill-13" fill="#020203" mask="url(#mask-2)"></path>
            <polygon id="Fill-14" fill="#020203" mask="url(#mask-2)" points="0.739 5.25 206.614 5.25 206.614 0 0.739 0"></polygon>
            <polygon id="Fill-15" fill="#020203" mask="url(#mask-2)" points="0.552 292.229 207.364 292.229 207.364 287.979 0.552 287.979"></polygon>
            <path d="M11.1064,233.9898 L6.6074,233.9898 L0.0004,252.5818 L3.9794,252.5818 L5.3064,248.8648 L12.3294,248.8648 L13.6294,252.5818 L17.6084,252.5818 L11.1064,233.9898 Z M8.8694,238.4398 L11.3924,245.6778 L6.5284,245.6778 L8.8694,238.4398 Z" id="Fill-16" fill="#020203" mask="url(#mask-2)"></path>
            <path d="M31.2158,242.6148 L38.8108,242.6148 L38.8108,252.6468 L36.4698,252.6468 L36.0018,250.3058 C35.0918,251.4298 33.5048,253.3468 29.7608,253.1438 C26.3288,252.9648 25.1318,251.5848 24.2478,250.7648 C19.8488,246.5608 20.4468,237.0628 26.8228,234.3398 C27.6028,234.0078 28.7988,233.6768 30.4368,233.6768 C32.2308,233.6768 34.7268,233.8558 36.6518,235.7148 C38.8108,237.8278 38.7328,239.4818 38.8108,239.8898 L35.2468,239.8898 C34.5708,237.6738 32.6468,236.8348 30.6188,236.8348 C29.3188,236.8348 28.3828,237.1658 27.2908,237.8778 C24.8988,239.8398 24.7678,244.5748 25.8088,246.6878 C26.5628,248.2168 27.9668,249.7948 30.1508,250.0238 C31.4768,250.1518 33.3488,249.6938 34.4668,248.3188 C35.5068,247.1218 35.5068,246.2558 35.5328,245.7718 L31.2168,245.7718 L31.2158,242.6148 Z" id="Fill-17" fill="#020203" mask="url(#mask-2)"></path>
            <path d="M44.8559,252.5845 L48.7569,252.5845 L48.7569,245.2395 L53.3279,245.2395 C54.6789,245.2395 55.6139,245.8525 55.6659,247.1025 C55.6139,248.4535 55.6139,249.9325 55.6659,250.8505 C55.7179,251.4635 55.8729,252.0235 56.1849,252.5845 L60.3629,252.5845 L60.3629,251.8975 C59.9469,251.6415 59.6339,251.4115 59.6339,250.3655 C59.6089,249.4225 59.5569,246.9745 59.4529,246.2095 C59.2459,244.5255 58.0009,244.0665 57.3519,243.6335 C58.6239,242.8945 59.4559,242.3075 59.9239,240.6995 C60.3919,239.0925 60.0019,237.7655 59.7419,236.9485 C59.1959,234.9345 57.2709,234.0655 55.3749,233.9895 L44.8559,233.9895 L44.8559,252.5845 Z M48.7569,237.1775 L54.0249,237.1775 C55.7639,237.1775 56.3869,237.9435 56.3869,239.2705 C56.6209,241.1075 54.9849,242.0525 54.0769,242.0525 L48.7569,242.0525 L48.7569,237.1775 Z" id="Fill-18" fill="#020203" mask="url(#mask-2)"></path>
            <polygon id="Fill-19" fill="#020203" mask="url(#mask-2)" points="65.377 252.582 69.278 252.582 69.278 233.994 65.377 233.994"></polygon>
            <path d="M91.0039,246.2212 C90.9779,248.1072 89.8859,250.2462 88.4549,251.3402 C87.3369,252.2052 85.2029,253.0702 82.8609,253.1472 C78.6469,253.2742 75.7009,250.6282 74.6849,246.7052 C74.4759,245.8382 74.3189,244.6662 74.3189,243.4432 C74.3189,242.1942 74.4499,240.9192 74.7629,239.8752 C75.8319,236.4082 78.0999,233.6812 83.0179,233.6812 C84.3709,233.6812 86.2699,233.8332 88.1169,235.1332 C90.8479,236.9452 90.9779,239.3402 91.0039,240.2842 L87.2849,240.2842 C87.1809,239.2392 86.2959,236.6132 82.4969,236.8942 C80.7279,237.0212 79.3489,238.2702 78.7239,239.8492 C78.4639,240.5122 78.2039,241.7362 78.1259,243.0612 C78.0739,244.3862 78.2039,245.8132 78.7239,246.9602 C79.3489,248.3112 80.2079,249.1252 81.1699,249.5592 C81.6649,249.7632 82.1589,249.8652 82.7059,249.8652 C83.2259,249.8902 83.7979,249.8142 84.3449,249.6602 C87.0509,248.9222 87.1289,247.0352 87.2849,246.2212 L91.0039,246.2212 Z" id="Fill-20" fill="#020203" mask="url(#mask-2)"></path>
            <path d="M111.1792,233.9937 L111.1792,246.8057 C111.1792,248.4337 110.7622,250.8787 107.6152,252.3817 C106.4462,252.8907 105.0692,253.1467 103.7432,253.1467 C102.4182,253.1467 101.1192,252.9167 100.0802,252.5347 C96.9322,250.8277 96.1522,248.6377 96.1522,246.8057 L96.1522,233.9937 L100.0542,233.9937 L100.0542,246.8557 C100.1062,248.0267 100.4692,249.8347 103.6392,249.8347 C106.7312,249.8347 107.2772,248.0267 107.2772,246.8557 L107.2772,233.9937 L111.1792,233.9937 Z" id="Fill-21" fill="#020203" mask="url(#mask-2)"></path>
            <polygon id="Fill-22" fill="#020203" mask="url(#mask-2)" points="121.1694 233.9937 121.1694 249.3967 130.2464 249.3967 130.2464 252.5847 117.2674 252.5847 117.2674 233.9937"></polygon>
            <polygon id="Fill-23" fill="#020203" mask="url(#mask-2)" points="146.9194 233.9898 146.9194 237.1778 141.3794 237.1778 141.3794 252.5818 137.4784 252.5818 137.4784 237.1778 131.7294 237.1778 131.7294 233.9898"></polygon>
            <path d="M166.4506,233.9937 L166.4506,246.8057 C166.4506,248.4337 166.0346,250.8787 162.8876,252.3817 C161.7176,252.8907 160.3406,253.1467 159.0166,253.1467 C157.6906,253.1467 156.3916,252.9167 155.3516,252.5347 C152.2046,250.8277 151.4246,248.6377 151.4246,246.8057 L151.4246,233.9937 L155.3256,233.9937 L155.3256,246.8557 C155.3786,248.0267 155.7416,249.8347 158.9116,249.8347 C162.0036,249.8347 162.5496,248.0267 162.5496,246.8557 L162.5496,233.9937 L166.4506,233.9937 Z" id="Fill-24" fill="#020203" mask="url(#mask-2)"></path>
            <path d="M172.5385,252.5845 L176.4405,252.5845 L176.4405,245.2395 L181.0125,245.2395 C182.3625,245.2395 183.2975,245.8525 183.3495,247.1025 C183.2975,248.4535 183.2975,249.9325 183.3495,250.8505 C183.4005,251.4635 183.5565,252.0235 183.8675,252.5845 L188.0465,252.5845 L188.0465,251.8975 C187.6305,251.6415 187.3175,251.4115 187.3175,250.3655 C187.2915,249.4225 187.2395,246.9745 187.1365,246.2095 C186.9295,244.5255 185.6835,244.0665 185.0345,243.6335 C186.3075,242.8945 187.1405,242.3075 187.6075,240.6995 C188.0755,239.0925 187.6845,237.7655 187.4255,236.9485 C186.8795,234.9345 184.9545,234.0655 183.0585,233.9895 L172.5385,233.9895 L172.5385,252.5845 Z M176.4405,237.1775 L181.7085,237.1775 C183.4465,237.1775 184.0705,237.9435 184.0705,239.2705 C184.3045,241.1075 182.6695,242.0525 181.7615,242.0525 L176.4405,242.0525 L176.4405,237.1775 Z" id="Fill-25" fill="#020203" mask="url(#mask-2)"></path>
            <polygon id="Fill-26" fill="#020203" mask="url(#mask-2)" points="207.2319 233.9898 207.2319 237.1778 197.3999 237.1778 197.3999 241.4268 206.4769 241.4268 206.4769 244.6148 197.3999 244.6148 197.3999 249.3968 207.6729 249.3968 207.6729 252.5848 193.4979 252.5848 193.4979 233.9898"></polygon>
            <path d="M6.3935,275.44 L11.7105,275.44 C12.4405,275.44 13.9275,275.541 13.9275,277.628 C13.9275,280.17 12.1545,280.221 10.9815,280.221 L6.3935,280.221 L6.3935,275.44 Z M2.4915,283.409 L11.0595,283.409 C12.2585,283.409 14.3695,283.231 15.6695,282.133 C17.3595,280.707 17.6465,279.178 17.6465,278.212 C17.6465,275.999 16.5015,274.37 15.3835,273.528 C16.7605,272.406 17.1765,270.819 17.1765,269.692 C17.1765,268.924 16.8125,264.815 10.3305,264.815 L2.4915,264.815 L2.4915,283.409 Z M6.3935,268.002 L11.0335,268.002 C12.3895,268.002 13.4585,268.515 13.4585,270.127 C13.4585,271.613 12.4935,272.252 10.8255,272.252 L6.3935,272.252 L6.3935,268.002 Z" id="Fill-27" fill="#020203" mask="url(#mask-2)"></path>
            <polygon id="Fill-28" fill="#020203" mask="url(#mask-2)" points="25.531 283.406 29.432 283.406 29.432 264.818 25.531 264.818"></polygon>
            <path d="M55.2041,274.2368 C55.2041,271.4358 54.1631,268.6348 52.3951,266.8248 C50.8071,265.2188 48.4901,264.5048 46.0681,264.5048 C43.6461,264.5048 41.3281,265.2188 39.7401,266.8248 C37.9701,268.6348 36.9281,271.4358 36.9281,274.2368 C36.9281,277.0388 37.9701,279.8408 39.7401,281.6488 C41.3281,283.2568 43.6461,283.9688 46.0681,283.9688 C48.4901,283.9688 50.8071,283.2568 52.3951,281.6488 C54.1631,279.8408 55.2041,277.0388 55.2041,274.2368 M46.0681,280.6298 C44.8181,280.6298 43.5681,280.2728 42.5781,279.3818 C41.3281,278.2608 40.7031,276.2488 40.6771,274.2368 C40.7031,272.2248 41.3281,270.2138 42.5781,269.0918 C43.5681,268.2018 44.8181,267.8438 46.0681,267.8438 C47.3181,267.8438 48.5681,268.2018 49.5571,269.0918 C50.8071,270.2138 51.4321,272.2248 51.4581,274.2368 C51.4321,276.2488 50.8071,278.2608 49.5571,279.3818 C48.5681,280.2728 47.3181,280.6298 46.0681,280.6298" id="Fill-29" fill="#020203" mask="url(#mask-2)"></path>
            <polygon id="Fill-30" fill="#020203" mask="url(#mask-2)" points="66.8872 264.8179 66.8872 280.2209 75.9652 280.2209 75.9652 283.4089 62.9862 283.4089 62.9862 264.8179"></polygon>
            <path d="M100.8515,274.2368 C100.8515,271.4358 99.8115,268.6348 98.0425,266.8248 C96.4545,265.2188 94.1375,264.5048 91.7155,264.5048 C89.2935,264.5048 86.9755,265.2188 85.3875,266.8248 C83.6175,268.6348 82.5755,271.4358 82.5755,274.2368 C82.5755,277.0388 83.6175,279.8408 85.3875,281.6488 C86.9755,283.2568 89.2935,283.9688 91.7155,283.9688 C94.1375,283.9688 96.4545,283.2568 98.0425,281.6488 C99.8115,279.8408 100.8515,277.0388 100.8515,274.2368 M91.7155,280.6298 C90.4655,280.6298 89.2155,280.2728 88.2255,279.3818 C86.9755,278.2608 86.3505,276.2488 86.3245,274.2368 C86.3505,272.2248 86.9755,270.2138 88.2255,269.0918 C89.2155,268.2018 90.4655,267.8438 91.7155,267.8438 C92.9655,267.8438 94.2155,268.2018 95.2045,269.0918 C96.4545,270.2138 97.0795,272.2248 97.1055,274.2368 C97.0795,276.2488 96.4545,278.2608 95.2045,279.3818 C94.2155,280.2728 92.9655,280.6298 91.7155,280.6298" id="Fill-31" fill="#020203" mask="url(#mask-2)"></path>
            <path d="M117.4399,273.44 L125.0349,273.44 L125.0349,283.471 L122.6939,283.471 L122.2259,281.13 C121.3159,282.255 119.7289,284.172 115.9859,283.968 C112.5529,283.79 111.3569,282.409 110.4709,281.59 C106.0729,277.386 106.6709,267.888 113.0469,265.165 C113.8279,264.833 115.0229,264.502 116.6619,264.502 C118.4559,264.502 120.9519,264.681 122.8759,266.54 C125.0349,268.653 124.9569,270.307 125.0349,270.715 L121.4709,270.715 C120.7949,268.499 118.8719,267.659 116.8429,267.659 C115.5439,267.659 114.6079,267.99 113.5149,268.703 C111.1229,270.665 110.9929,275.4 112.0339,277.514 C112.7879,279.041 114.1919,280.62 116.3759,280.849 C117.7019,280.977 119.5739,280.518 120.6919,279.143 C121.7319,277.946 121.7319,277.081 121.7579,276.596 L117.4419,276.596 L117.4399,273.44 Z" id="Fill-32" fill="#020203" mask="url(#mask-2)"></path>
            <polygon id="Fill-33" fill="#020203" mask="url(#mask-2)" points="133.16 283.406 137.062 283.406 137.062 264.818 133.16 264.818"></polygon>
            <path d="M160.8413,280.7817 C162.1423,279.0247 162.8963,276.6317 162.8963,274.2367 C162.8963,271.4357 161.8553,268.6357 160.0873,266.8247 C158.5003,265.2187 156.1893,264.5047 153.7733,264.5047 C151.3583,264.5047 149.0453,265.2187 147.4603,266.8247 C145.6913,268.6357 144.6513,271.4357 144.6513,274.2367 C144.6513,277.0387 145.6913,279.8407 147.4603,281.6487 C149.0453,283.2567 151.3583,283.9697 153.7733,283.9697 C155.5393,283.9697 157.2543,283.5877 158.7083,282.7197 L160.8933,284.7607 L162.8963,282.6947 L160.8413,280.7817 Z M155.9553,280.1707 C155.2793,280.5027 154.5273,280.6297 153.7733,280.6297 C152.5263,280.6297 151.2793,280.2727 150.2923,279.3817 C149.0453,278.2607 148.4223,276.2487 148.3963,274.2367 C148.4223,272.2247 149.0453,270.2137 150.2923,269.0927 C151.2793,268.2017 152.5263,267.8437 153.7733,267.8437 C155.0203,267.8437 156.2673,268.2017 157.2543,269.0927 C158.5003,270.2137 159.1243,272.2247 159.1503,274.2367 C159.1243,275.6887 158.8133,277.1397 158.1373,278.2607 L156.0073,276.2737 L154.0073,278.3627 L155.9553,280.1707 Z" id="Fill-34" fill="#020203" mask="url(#mask-2)"></path>
            <path d="M185.517,264.8179 L185.517,277.6289 C185.517,279.2579 185.1,281.7039 181.954,283.2069 C180.784,283.7169 179.406,283.9709 178.081,283.9709 C176.756,283.9709 175.456,283.7429 174.417,283.3599 C171.271,281.6529 170.49,279.4629 170.49,277.6289 L170.49,264.8179 L174.392,264.8179 L174.392,277.6809 C174.444,278.8519 174.808,280.6589 177.978,280.6589 C181.07,280.6589 181.615,278.8519 181.615,277.6809 L181.615,264.8179 L185.517,264.8179 Z" id="Fill-35" fill="#020203" mask="url(#mask-2)"></path>
            <polygon id="Fill-36" fill="#020203" mask="url(#mask-2)" points="207.8559 264.815 207.8559 268.002 198.0249 268.002 198.0249 272.252 207.1009 272.252 207.1009 275.44 198.0249 275.44 198.0249 280.221 208.2979 280.221 208.2979 283.409 194.1229 283.409 194.1229 264.815"></polygon>
            <path d="M38.162,173.0143 L83.932,173.0143 C83.932,173.0143 83.962,114.4743 83.962,114.0843 C75.152,117.5343 50.932,140.4043 38.162,173.0143 L38.162,173.0143 Z M150.342,130.9343 C150.342,114.7143 139.692,111.9543 126.672,111.9543 L122.822,111.9543 L122.822,150.2243 L126.372,150.2243 C139.542,150.2243 150.342,147.4643 150.342,130.9343 L150.342,130.9343 Z M131.402,161.6943 L122.822,161.6943 L122.822,201.7143 L133.492,201.7143 C146.382,201.7143 159.862,197.7243 159.862,181.3243 C159.862,165.0743 143.862,161.6943 131.402,161.6943 L131.402,161.6943 Z M157.802,99.0043 C126.052,99.0043 118.972,63.9543 129.132,48.6243 C142.382,53.8743 154.382,72.6243 150.432,92.8743 C152.052,88.2943 170.472,72.4543 189.182,76.7543 C188.682,82.5043 176.432,99.0043 157.802,99.0043 L157.802,99.0043 Z M134.972,214.4643 L108.862,214.4643 L108.862,99.2043 L122.522,99.2043 C143.532,99.2043 163.342,104.8243 163.342,130.7843 C163.342,139.2043 158.912,148.9943 151.422,152.6743 L151.422,152.9743 C164.612,155.4243 173.822,168.7443 173.822,182.2443 C173.822,205.3543 154.682,214.4643 134.972,214.4643 L134.972,214.4643 Z M98.442,115.4343 C98.432,115.7443 98.432,214.5643 98.432,214.5643 L83.932,214.5643 L83.932,187.0143 L33.612,187.0143 C31.372,195.6543 30.052,204.8043 30.052,214.3143 L15.552,214.3143 C15.552,178.6343 32.522,149.0843 42.632,134.6443 C54.912,117.1143 72.942,99.3343 85.562,99.1243 C90.132,99.0543 93.012,100.9643 94.622,102.5743 C98.632,106.6143 98.512,112.3543 98.442,115.4343 L98.442,115.4343 Z M0.492,225.0043 L207.112,225.0043 L207.112,40.2543 L0.492,40.2543 L0.492,225.0043 Z M150.342,130.9343 C150.342,114.7143 139.692,111.9543 126.672,111.9543 L122.822,111.9543 L122.822,150.2243 L126.372,150.2243 C139.542,150.2243 150.342,147.4643 150.342,130.9343 L150.342,130.9343 Z M131.402,161.6943 L122.822,161.6943 L122.822,201.7143 L133.492,201.7143 C146.382,201.7143 159.862,197.7243 159.862,181.3243 C159.862,165.0743 143.862,161.6943 131.402,161.6943 L131.402,161.6943 Z M131.402,161.6943 L122.822,161.6943 L122.822,201.7143 L133.492,201.7143 C146.382,201.7143 159.862,197.7243 159.862,181.3243 C159.862,165.0743 143.862,161.6943 131.402,161.6943 L131.402,161.6943 Z M126.672,111.9543 L122.822,111.9543 L122.822,150.2243 L126.372,150.2243 C139.542,150.2243 150.342,147.4643 150.342,130.9343 C150.342,114.7143 139.692,111.9543 126.672,111.9543 L126.672,111.9543 Z" id="Fill-37" fill="#020203" mask="url(#mask-2)"></path>
        </g>
    </g>
</svg>