<?xml version="1.0" encoding="UTF-8"?>
<svg width="109px" height="109px" viewBox="0 0 109 109" version="1.1" xmlns="http://www.w3.org/2000/svg" xmlns:xlink="http://www.w3.org/1999/xlink">
    <title>Group 7 Copy</title>
    <g id="Page-1" stroke="none" stroke-width="1" fill="none" fill-rule="evenodd">
        <g id="Artboard" transform="translate(-179.000000, -1655.000000)">
            <g id="carousel" transform="translate(-22.243184, 1230.000000)">
                <g id="Group-6" transform="translate(0.000000, 206.810452)">
                    <g id="Group-7-Copy" transform="translate(255.743184, 272.689548) rotate(-180.000000) translate(-255.743184, -272.689548) translate(202.243184, 219.189548)">
                        <path d="M-1.99862358e-13,53.5 C-1.99862358e-13,83.046996 23.953004,107 53.5,107 C83.046996,107 107,83.046996 107,53.5 C107,23.953004 83.046996,0 53.5,0 C23.953004,0 -1.99862358e-13,23.953004 -1.99862358e-13,53.5" id="Fill-1" fill="#FEFEFE"></path>
                        <path d="M-1.99862358e-13,53.5 C-1.99862358e-13,83.046996 23.953004,107 53.5,107 C83.046996,107 107,83.046996 107,53.5 C107,23.953004 83.046996,0 53.5,0 C23.953004,0 -1.99862358e-13,23.953004 -1.99862358e-13,53.5 Z" id="Stroke-3" stroke="#1D1D1B" stroke-width="2"></path>
                        <path d="M76.009019,52.8693529 C64.2185435,48.3345543 43.1726369,39.6410256 31,34.4749695 C31.1228815,31.0744811 31.3760172,25.026862 31.3760172,22 C40.5085669,27.042735 76.8974519,45.4371184 84,48.4627595 C83.8709745,49.8485958 83.8709745,51.7362637 83.8709745,53.3724054 C83.8709745,55.2649573 83.8709745,57.4041514 84,58.6654457 C77.2783845,61.5641026 40.8845842,79.3272283 31.3760172,85 C31.3760172,81.0915751 31.1228815,75.1721612 31,72.021978 C42.913357,66.8571429 64.6007048,58.034188 76.009019,53.6288156 L76.009019,52.8693529 Z" id="Fill-5" fill="#020203"></path>
                    </g>
                </g>
            </g>
        </g>
    </g>
</svg>