<?xml version="1.0" encoding="UTF-8"?>
<svg width="67px" height="39px" viewBox="0 0 67 39" version="1.1" xmlns="http://www.w3.org/2000/svg" xmlns:xlink="http://www.w3.org/1999/xlink">
    <title>Group 26</title>
    <defs>
        <polygon id="path-1" points="0 0 7 0 7 6 0 6"></polygon>
    </defs>
    <g id="Page-1" stroke="none" stroke-width="1" fill="none" fill-rule="evenodd">
        <g id="Artboard-produit" transform="translate(-1131.000000, -1424.000000)">
            <g id="thé-noir-pêche" transform="translate(148.000000, 383.000000)">
                <g id="Group-7" transform="translate(695.000000, 1032.000000)">
                    <g id="Group-26" transform="translate(288.000000, 9.000000)">
                        <path d="M21.2713925,1.9054667 C22.3092275,1.98590924 22.8198881,2.03829043 23.8367632,2.15801887 C24.1670412,2.19917551 24.4808053,2.056998 24.5366985,1.83874304 C24.7145404,1.16776494 24.8040966,0.829781543 24.9774925,0.152567584 C25.034656,-0.0681817172 25.2010653,-0.0469798069 25.3427038,0.200583675 C25.7898493,0.956369419 26.0083409,1.3380038 26.4338914,2.10376692 C26.5748947,2.35444833 26.9528089,2.5939052 27.2716542,2.65688734 C28.2224737,2.84708095 28.5692656,2.93188859 29.7195221,3.23370402 C30.036462,3.31726449 30.0879091,3.45881842 29.8579848,3.53801379 C29.1497926,3.77871783 28.7852165,3.84419432 28.0554292,4.13665597 C27.8204238,4.22894663 27.7346785,4.51392525 27.8648843,4.76647742 C28.2586772,5.53722922 28.444141,5.9494193 28.8074468,6.77504663 C28.9281253,7.04505919 28.8137983,7.0749913 28.5533868,6.84862973 C27.7550033,6.15894406 27.3396152,5.90077962 26.5005821,5.32271577 C26.2217513,5.13189858 25.8025523,5.06205699 25.5643711,5.1612071 C24.8491922,5.46676404 24.492238,5.68127749 23.7656264,6.0011769 C23.5274452,6.10781004 23.3845364,6.01739013 23.4448757,5.80537102 C23.6322449,5.15060615 23.725612,4.76647742 23.9079,4.11295971 C23.9669689,3.89969344 23.7783294,3.58166478 23.4880659,3.41267309 C22.5880584,2.88636684 22.1313856,2.63319109 21.2078775,2.14679432 C20.9080867,1.98715641 20.9353982,1.88052327 21.2713925,1.9054667" id="Fill-1" fill="#151616"></path>
                        <path d="M12.3275439,9.70584291 C13.6332463,9.46653819 14.0360836,9.41009285 15.2720771,9.25486816 C15.6414005,9.20900632 16.0160861,9.01497546 16.1052332,8.80212949 C16.3740148,8.1418366 16.5000272,7.814924 16.7641169,7.16462664 C16.8492422,6.95472053 17.0308877,6.944725 17.1656137,7.13934383 C17.5919107,7.75201097 17.8010376,8.06069642 18.2132589,8.68571097 C18.3479848,8.88797345 18.7488113,9.06612905 19.0973561,9.04790191 C20.2582784,8.98675279 20.52706,8.92736759 21.7060798,8.87680197 C22.0452407,8.86151469 22.0888088,8.97852118 21.8475085,9.11551872 C20.9433029,9.62999449 20.6678185,9.84048857 19.8661655,10.2638286 C19.6101191,10.3996502 19.4827662,10.6530663 19.6128002,10.8665002 C20.0029023,11.5038622 20.1959425,11.827247 20.5712984,12.4869519 C20.6959702,12.7045016 20.5612442,12.7638868 20.2716839,12.6210096 C19.3936192,12.1859101 18.9472137,11.9848235 18.0316134,11.6202807 C17.7286475,11.4962186 17.2540904,11.5156216 16.9745843,11.6620267 C16.1280226,12.1059458 15.8444949,12.2658743 14.7070323,12.8908889 C14.3913312,13.0637527 14.2364969,13.036706 14.3544659,12.7703545 C14.723119,11.9419016 14.8504719,11.741991 15.1534378,11.0799342 C15.2519687,10.8647363 15.0609394,10.6077924 14.7418868,10.5219485 C13.7532261,10.256185 13.2511876,10.1432943 12.2223102,9.95925897 C11.8891818,9.90046174 11.935431,9.78404323 12.3275439,9.70584291" id="Fill-3" fill="#151616"></path>
                        <path d="M5.34737422,18.549297 C6.47264754,18.4540244 7.01379022,18.4324902 8.06067371,18.4292274 C8.40141659,18.4279223 8.81359536,18.2373771 8.98301853,17.997238 C9.51088551,17.2585492 9.77070986,16.8931201 10.2878298,16.1687875 C10.4547243,15.9358264 10.6159292,15.9449621 10.6500667,16.1903217 C10.7461575,16.9479345 10.7935707,17.331635 10.8719605,18.1029514 C10.8972475,18.3515737 11.1766693,18.5773567 11.480746,18.6210777 C12.540273,18.7737748 12.7096962,18.8031397 13.7787059,19.0073884 C14.0669781,19.0628554 14.0739321,19.195976 13.7976711,19.2932062 C12.9429691,19.586202 12.5061355,19.7506451 11.6084456,20.1062859 C11.3189089,20.2224402 11.0578202,20.5304447 11.0622455,20.78494 C11.0673029,21.5660447 11.0673029,21.960186 11.0578202,22.7556469 C11.0521307,23.0186253 10.9010406,23.0780075 10.715813,22.8913777 C10.1506476,22.330183 9.85984668,22.0554586 9.25169334,21.5308068 C9.05129354,21.3617959 8.6226782,21.3389566 8.3009006,21.4805603 C7.32102776,21.9190753 6.82287306,22.153994 5.81581665,22.6407977 C5.48392424,22.8006729 5.36823602,22.7301973 5.5667393,22.4763546 C6.16035258,21.7076484 6.45873967,21.3259055 7.04223814,20.5709029 C7.23694835,20.3235857 7.20850043,19.9986149 6.98344577,19.8550534 C6.27793732,19.4093604 5.91317176,19.2038066 5.1393883,18.8266316 C4.8890466,18.706562 4.98640171,18.5799669 5.34737422,18.549297" id="Fill-5" fill="#151616"></path>
                        <path d="M23.8436397,31.0630091 C23.1287958,31.4813464 22.7374356,31.7554294 21.9779522,32.3029682 C21.7315176,32.4804636 21.579254,32.8630509 21.6422385,33.1503049 C21.8330266,34.0290013 21.9241402,34.4768165 22.1051443,35.4138417 C22.1644598,35.7211659 22.0360447,35.8208895 21.8214081,35.6339862 C21.1689373,35.0601053 20.8417846,34.7866495 20.1868677,34.2585536 C19.9703966,34.0829398 19.5857629,34.1048915 19.3319902,34.3074746 C18.5584423,34.9177327 18.1707511,35.2338376 17.3855847,35.8817271 C17.1263085,36.0974813 17.0186845,36.00842 17.1397615,35.6929423 C17.5109422,34.7320838 17.6931693,34.2654527 18.0515085,33.3535152 C18.1707511,33.0549717 18.0857526,32.6855555 17.8619434,32.5318934 C17.1795091,32.0621264 16.8333999,31.8363372 16.1375125,31.4098465 C15.9112574,31.2718642 15.9711844,31.1282371 16.2659275,31.0880968 C17.1856241,30.9689303 17.6393573,30.9218909 18.5407088,30.8478822 C18.8336175,30.8227945 19.1644391,30.576308 19.2732862,30.2997162 C19.6181724,29.4348181 19.788781,29.0127177 20.1171567,28.2017581 C20.2241692,27.9358286 20.3672603,27.9339471 20.4363598,28.1892143 C20.646716,28.9794765 20.749448,29.3815067 20.9555236,30.2094005 C21.0209542,30.4772116 21.3108053,30.6923385 21.5945415,30.687321 C22.475102,30.667878 22.9153822,30.6490623 23.7702597,30.7519218 C24.0491038,30.782027 24.0747869,30.92879 23.8436397,31.0630091" id="Fill-7" fill="#151616"></path>
                        <path d="M36.8614073,32.6892025 C36.1619924,32.8953792 35.8116032,33.0073386 35.1026447,33.2361519 C34.8701881,33.3101797 34.7631626,33.5805954 34.8654162,33.8363279 C35.1755856,34.6108669 35.335783,34.9975247 35.6616312,35.7745109 C35.7707018,36.0296316 35.6520876,36.0761284 35.3971352,35.8736225 C34.6295512,35.2636577 34.2518944,34.9522514 33.5074879,34.322709 C33.2593524,34.1153088 32.8694252,34.0149735 32.6315151,34.10552 C31.9102861,34.3783829 31.5455814,34.5215441 30.8025383,34.8335622 C30.5564479,34.9369564 30.4323802,34.8286678 30.5244084,34.5949601 C30.8114003,33.8901663 30.9491019,33.551229 31.2210966,32.8855904 C31.3110798,32.6653423 31.187012,32.3178398 30.9491019,32.1079923 C30.2217377,31.4582605 29.8618049,31.1309474 29.1460294,30.4812156 C28.9162996,30.2695327 28.9626545,30.1624677 29.2496464,30.2438371 C30.1399348,30.4958988 30.5857606,30.6225414 31.4719588,30.8801093 C31.7575873,30.9645378 32.0602581,30.8629789 32.1454695,30.6604731 C32.404512,30.0278717 32.5326699,29.7225834 32.7821688,29.1193484 C32.8619266,28.9272431 33.0016733,28.9712927 33.0930198,29.2209072 C33.3766033,29.9887164 33.5211217,30.3747624 33.8135671,31.1523604 C33.9083222,31.4031985 34.2212183,31.680344 34.5102553,31.7623252 C35.4032704,32.0260111 35.8470512,32.1557127 36.742793,32.4163396 C37.03183,32.500768 37.0856836,32.6219045 36.8614073,32.6892025" id="Fill-9" fill="#151616"></path>
                        <path d="M46.8600697,28.6710879 C46.1394284,28.9379442 45.8038817,29.077755 45.1064464,29.340964 C44.8819124,29.4254584 44.794733,29.6935304 44.9182894,29.9391111 C45.2870772,30.6813242 45.4771157,31.0521267 45.8703639,31.783398 C45.9970563,32.0210764 45.8822805,32.0739614 45.613216,31.8879522 C44.794733,31.3250617 44.3933314,31.0430086 43.6174973,30.365838 C43.3616038,30.1433565 42.9771363,30.0120559 42.7563654,30.0807456 C42.091544,30.2855988 41.7597605,30.3858978 41.0987022,30.5962219 C40.8798129,30.6649116 40.7543749,30.5500236 40.8164667,30.3415231 C41.0171675,29.7087272 41.1162635,29.3968884 41.3144556,28.7792893 C41.3847009,28.5732203 41.2341752,28.2255169 40.9945887,27.9975645 C40.246351,27.2924318 39.8775632,26.9301394 39.1556675,26.2183201 C38.9210985,25.9842889 38.9549667,25.8870292 39.2346935,25.9958385 C40.0933166,26.338071 40.5210602,26.5046283 41.3903456,26.826801 C41.6725811,26.9331788 41.9610885,26.855371 42.0275706,26.6584202 C42.2357977,26.0402132 42.3436744,25.7338452 42.5606821,25.1211092 C42.6303002,24.9217268 42.7689092,24.9752196 42.8730228,25.2323499 C43.1910081,26.0347424 43.3565863,26.4371544 43.6933873,27.2377232 C43.8050271,27.4978929 44.1286572,27.7854168 44.4228093,27.8820687 C45.3221998,28.1750635 45.7919651,28.2255169 46.728987,28.4109182 C47.0312926,28.4668425 47.0889941,28.5835542 46.8600697,28.6710879" id="Fill-11" fill="#151616"></path>
                        <path d="M53.8492007,21.6534479 C53.0980381,22.1256601 52.7286251,22.3441279 51.9993943,22.7457868 C51.7677401,22.8757535 51.6621935,23.1424946 51.7677401,23.3393013 C52.0946603,23.9377669 52.26189,24.2323581 52.5970346,24.8110192 C52.7114909,25.0041126 52.5908663,25.057337 52.336595,24.9329403 C51.5669275,24.5597503 51.1892901,24.3561358 50.4463519,23.9222947 C50.200305,23.7787125 49.8212969,23.7347713 49.5978671,23.825748 C48.9227803,24.1030103 48.5910625,24.2323581 47.9344806,24.4861025 C47.7172191,24.5702714 47.5986506,24.4885781 47.6692434,24.3072436 C47.8789658,23.7545758 47.9872538,23.4791702 48.2079421,22.9209324 C48.278535,22.7377413 48.1490005,22.4542901 47.9111781,22.2896657 C47.1935985,21.7778445 46.8440611,21.4770645 46.1484133,20.9262534 C45.922242,20.7480134 45.9578811,20.6564178 46.2327135,20.7121178 C47.0716031,20.8996411 47.4965308,20.9825723 48.3621498,21.1162523 C48.6458919,21.1577178 48.9392291,21.0203245 49.0159902,20.81114 C49.2579249,20.1613067 49.3819764,19.8326766 49.6321355,19.1549932 C49.7157503,18.939001 49.8576213,18.950141 49.9501459,19.1797488 C50.2386856,19.8964222 50.3942639,20.2522833 50.6930841,20.9621489 C50.7890355,21.1911378 51.1091021,21.3972279 51.40381,21.4083679 C52.3174047,21.4461201 52.7800277,21.4492145 53.7313175,21.402179 C54.0376767,21.3885634 54.0890793,21.4981067 53.8492007,21.6534479" id="Fill-13" fill="#151616"></path>
                        <path d="M60.8581897,10.4684713 C60.1874896,11.1884119 59.8505472,11.5431557 59.1811209,12.2271646 C58.9651975,12.445368 58.8492741,12.7890057 58.9212485,12.9889166 C59.147363,13.5919158 59.2626495,13.8891689 59.5046876,14.4679959 C59.5817576,14.6554941 59.4734774,14.7711288 59.2594648,14.7169046 C58.6085099,14.5555386 58.2919496,14.4575431 57.6734788,14.2282335 C57.472205,14.1524503 57.1327149,14.2550189 56.9231609,14.4555832 C56.2811231,15.0611956 55.9441807,15.3577954 55.3492767,15.8961176 C55.1569202,16.0712029 55.0569202,16.0182853 55.1269839,15.7876692 C55.3409965,15.0742617 55.5104231,14.6894658 55.7702955,13.9381667 C55.8575566,13.689258 55.7690216,13.4089908 55.5747542,13.3142618 C54.9798502,13.0150487 54.6900415,12.8491096 54.1155197,12.5028587 C53.9301695,12.3911438 53.9722077,12.2702826 54.2104241,12.2317377 C54.9518248,12.1089167 55.3257098,12.0337867 56.0887666,11.8482485 C56.3346263,11.7861847 56.6110592,11.5196368 56.700868,11.2628885 C56.9741162,10.4593251 57.1097849,10.0549302 57.3906764,9.23046103 C57.4779375,8.96129995 57.604689,8.92210174 57.6677463,9.14357165 C57.8613767,9.82823382 57.9632875,10.162072 58.1683829,10.8179888 C58.2358987,11.0283525 58.5034145,11.1296146 58.7588283,11.040112 C59.5543691,10.7565782 59.9588274,10.601092 60.7722025,10.2509212 C61.0378074,10.1424728 61.0772979,10.2385085 60.8581897,10.4684713" id="Fill-15" fill="#151616"></path>
                        <path d="M47.1771711,3.41005958 C47.8118335,3.46461411 48.0574713,3.4487757 48.8008489,3.42413817 C49.0171043,3.41709888 49.240999,3.23114419 49.3003517,3.00471357 C49.4848739,2.3037172 49.5794856,1.94119356 49.7698843,1.19092213 C49.8321752,0.949239703 49.9414782,0.935161115 50.0119962,1.15924531 C50.2311898,1.85672203 50.3416681,2.18874206 50.5632122,2.84456963 C50.6343179,3.05516184 50.8682027,3.186562 51.0885716,3.186562 C51.6809231,3.186562 52.057607,3.16779055 52.7998093,3.13024764 C53.0231164,3.1191021 53.0730667,3.20709327 52.8809051,3.35843809 C52.3349779,3.78724842 52.0534934,3.93390038 51.5193193,4.35977767 C51.33656,4.50525642 51.266042,4.80677284 51.3389106,5.00504629 C51.5616301,5.60279968 51.6738713,5.8961036 51.9018796,6.47039267 C51.9770989,6.659867 51.8918896,6.73201977 51.7114809,6.63640269 C51.1643785,6.34251216 50.8922964,6.18999413 50.3493075,5.86794642 C50.1712495,5.76294362 49.8868267,5.79286062 49.7193464,5.93130007 C49.2133795,6.35365771 48.9630404,6.55721063 48.4670636,6.93909233 C48.3060474,7.06227998 48.2173122,6.99012722 48.2696131,6.79889306 C48.4306292,6.2257772 48.511725,5.92074113 48.6833189,5.29248413 C48.7391457,5.08658478 48.6339562,4.83023716 48.4617747,4.70704951 C47.9070328,4.30991601 47.6467037,4.08583181 47.1142925,3.64059646 C46.9397604,3.49511772 46.9685553,3.39187474 47.1771711,3.41005958" id="Fill-17" fill="#151616"></path>
                        <path d="M35.2119337,1.43953751 C35.9990022,1.67071277 36.3897498,1.7869355 37.1675296,2.02065115 C37.4238996,2.09432239 37.6852237,1.98762611 37.7521029,1.78439511 C37.9645061,1.14548765 38.0703981,0.819047853 38.2914708,0.143304772 C38.3614462,-0.0713579735 38.4945853,-0.0427786138 38.580042,0.21507072 C38.8475586,1.01465769 38.9757436,1.41476873 39.2321137,2.20673454 C39.3132356,2.46267858 39.585087,2.73195966 39.8358838,2.80753619 C40.6179983,3.04061674 41.0037919,3.1517587 41.7828101,3.37848828 C42.0360839,3.45279462 42.073239,3.58298948 41.8657898,3.67253814 C41.2298186,3.94181921 40.9208122,4.0675684 40.3021801,4.30509463 C40.1015426,4.38194135 40.0037009,4.64804695 40.0798688,4.89954531 C40.3158036,5.66483705 40.4297458,6.0414495 40.6613459,6.79086382 C40.7362753,7.03601122 40.6365758,7.07221174 40.4402731,6.86453506 C39.848888,6.24214012 39.5485511,5.92903735 38.942304,5.30727751 C38.7441436,5.10341141 38.4196559,4.99290455 38.2270687,5.06022482 C37.6400184,5.26472602 37.3514472,5.36126074 36.7743049,5.54353355 C36.587291,5.60640814 36.4820183,5.50288735 36.5458012,5.31680396 C36.7396269,4.75410812 36.8399456,4.46958472 37.0368675,3.8840254 C37.1025082,3.69159104 36.9867082,3.36832673 36.7804974,3.16954141 C36.1370953,2.55349743 35.8082728,2.24865093 35.1444353,1.65610554 C34.9276973,1.45986061 34.9586599,1.36650136 35.2119337,1.43953751" id="Fill-19" fill="#151616"></path>
                        <g id="Group-23" transform="translate(60.000000, 0.000000)">
                            <mask id="mask-2" fill="white">
                                <use xlink:href="#path-1"></use>
                            </mask>
                            <g id="Clip-22"></g>
                            <path d="M6.87319346,1.20274265 C6.26641331,1.70782994 5.9479194,1.96877172 5.29779782,2.51345018 C5.08503076,2.69041069 4.96814021,2.96155019 5.04037594,3.10971713 C5.26365002,3.56201621 5.37922719,3.77976762 5.62548537,4.19727446 C5.70757143,4.33344407 5.59724776,4.42942266 5.38054057,4.40602788 C4.72779223,4.33944273 4.40798495,4.28965384 3.77690733,4.17567928 C3.56939377,4.13788771 3.2206922,4.25726107 2.99610474,4.44501918 C2.31840224,5.01369229 1.97495417,5.30162804 1.28214784,5.87450021 C1.05559031,6.05985885 0.949863471,6.03826367 1.04902343,5.82051225 C1.35307019,5.16425869 1.50542192,4.83253271 1.80290179,4.17507941 C1.90403182,3.96032733 1.82128907,3.73777699 1.62165577,3.67958997 C1.00830874,3.50862812 0.71017218,3.40905034 0.115212428,3.19309853 C-0.0758839167,3.12291419 -0.0246622162,3.01073922 0.234729729,2.94175461 C1.02472596,2.73720025 1.4207091,2.62682488 2.21201871,2.40247494 C2.4687839,2.32929127 2.75575676,2.09054455 2.85491672,1.873393 C3.15370997,1.19674399 3.3060617,0.860818943 3.60025813,0.184769794 C3.6987614,-0.0335814842 3.81959208,-0.0617751931 3.87475391,0.118184651 C4.04220947,0.667062177 4.1315191,0.93280288 4.32327213,1.44568844 C4.38565754,1.61185136 4.64045266,1.68083597 4.89196435,1.6094519 C5.66620005,1.37490423 6.04839274,1.2603298 6.79242078,1.04077879 C7.03342544,0.968794849 7.0702,1.04197852 6.87319346,1.20274265" id="Fill-21" fill="#151616" mask="url(#mask-2)"></path>
                        </g>
                        <path d="M40.658646,14.3020933 C41.0859894,14.1894766 41.1467671,13.9760647 40.6415523,14.0021968 C39.7754698,14.0445058 29.6844689,16.3273281 20.938175,21.341573 C11.4213969,26.7975742 8.54458479,29.5153086 6.51232975,31.0639444 C5.97419368,31.4733467 5.57660609,31.4795686 5.48164091,31.2294474 C5.15685996,30.3789111 4.95363446,29.8942235 4.68899813,29.0965734 C4.60796117,28.8539186 4.37371371,28.881295 4.2698851,29.2203896 C3.91344909,30.3751779 3.74314485,31.0801214 3.39557226,32.1222929 C3.28541265,32.45641 3.16892201,32.822881 2.53772006,33.2546822 C1.28861128,34.1089518 1.02840667,34.2756992 0.249692119,34.7970961 C-0.0326710412,34.9856202 -0.178917432,35.1934323 0.385175788,35.2936052 C0.927110464,35.3906672 1.03473768,35.4105773 1.76660273,35.5431042 C2.35158829,35.6488768 2.15849241,36.0377468 2.07555614,36.3762192 C1.83814317,37.3424833 1.73621387,37.7313533 1.41966324,38.725616 C1.31266913,39.0516446 1.449419,39.0939537 1.72038634,38.8158339 C2.55228139,37.9621865 2.82198253,37.6747338 3.69946087,36.7762887 C4.03057283,36.437194 4.33952624,36.0489463 4.68709883,36.1105433 C5.54495103,36.2623581 5.64814654,36.287868 6.85040582,36.5112349 C7.38347708,36.6107856 7.38031157,36.3693751 7.23849689,36.0246808 C6.82698108,35.0229518 6.90295323,35.1548564 6.59083431,34.3068088 C6.49080431,34.0361553 6.47307747,33.5296911 6.78519639,33.2316611 C11.7987252,28.43705 13.8746643,26.8709928 20.7666045,22.4540522 C26.1644259,18.9934206 33.3393624,16.2445766 40.658646,14.3020933" id="Fill-24" fill="#151616"></path>
                    </g>
                </g>
            </g>
        </g>
    </g>
</svg>