<?xml version="1.0" encoding="UTF-8"?>
<svg width="40.6875px" height="40.4414062px" viewBox="0 0 40.6875 40.4414062" version="1.1" xmlns="http://www.w3.org/2000/svg" xmlns:xlink="http://www.w3.org/1999/xlink">
    <title>Facebook</title>
    <g id="Page-1" stroke="none" stroke-width="1" fill="none" fill-rule="evenodd">
        <g id="Facebook" fill="#FFFFFF" fill-rule="nonzero">
            <path d="M40.6875,20.34375 C40.6875,9.10546875 31.5820312,0 20.34375,0 C9.10546875,0 0,9.10546875 0,20.34375 C0,30.497578 7.43941426,38.9139848 17.1650391,40.4414062 L17.1650391,26.2245705 L11.9970703,26.2245705 L11.9970703,20.34375 L17.1650391,20.34375 L17.1650391,15.8615626 C17.1650391,10.7633196 20.2001953,7.9471879 24.8489048,7.9471879 C27.0752342,7.9471879 29.4032789,8.34421885 29.4032789,8.34421885 L29.4032789,13.3481251 L26.8373415,13.3481251 C24.31078,13.3481251 23.5224584,14.9165622 23.5224584,16.5251951 L23.5224584,20.34375 L29.1645677,20.34375 L28.262224,26.2245705 L23.5224584,26.2245705 L23.5224584,40.4414062 C33.2480857,38.9139848 40.6875,30.497578 40.6875,20.34375 Z" id="Path"></path>
        </g>
    </g>
</svg>