<?xml version="1.0" encoding="UTF-8"?>
<svg width="171.925016px" height="172.544431px" viewBox="0 0 171.925016 172.544431" version="1.1" xmlns="http://www.w3.org/2000/svg" xmlns:xlink="http://www.w3.org/1999/xlink">
    <title>Group 13</title>
    <g id="Page-1" stroke="none" stroke-width="1" fill="none" fill-rule="evenodd">
        <g id="Artboard" transform="translate(-732.350672, -1810.533254)">
            <g id="carousel" transform="translate(-22.243184, 1230.000000)">
                <g id="Group-6" transform="translate(0.000000, 206.810452)">
                    <g id="Group-13" transform="translate(840.556353, 459.994991) rotate(19.000000) translate(-840.556353, -459.994991) translate(774.056353, 392.994991)">
                        <path d="M60.854982,11.4812348 L64.3037193,6.96230383 C73.5995618,-5.2216674 92.9844419,-0.593256478 95.7367857,14.4674457 L96.7568144,20.0538066 C98.1365983,27.6050453 104.263995,33.395961 111.901207,34.3668757 L117.550374,35.0842578 C132.781455,37.0188846 138.452294,56.0712851 126.747971,65.9777843 L122.404902,69.6525668 C116.536125,74.6209419 114.569752,82.8060122 117.54604,89.8847583 L119.747915,95.1225118 C125.681708,109.24111 111.969112,123.665099 97.511,118.510896 L92.1479028,116.599318 C84.8993417,114.015014 76.8055728,116.409169 72.1446483,122.518441 L68.695911,127.038812 C59.4000685,139.221343 40.0151884,134.592932 37.2642894,119.53223 L36.2428159,113.945869 C34.863032,106.39463 28.7356356,100.603714 21.0998682,99.6342401 L15.4492558,98.9154175 C0.219620212,96.9807907 -5.45266415,77.9283902 6.25165975,68.021891 L10.5947282,64.3471085 C16.4635054,59.3801739 18.429878,51.1936631 15.4535902,44.114917 L13.25316,38.8771634 C7.31792207,24.7585654 21.0319626,10.3360164 35.4886303,15.4887789 L40.8517275,17.4003572 C48.1002886,19.9846614 56.1940575,17.5905067 60.854982,11.4812348" id="Fill-1" fill="#FEFEFE"></path>
                        <path d="M60.854982,11.4812348 L64.3037193,6.96230383 C73.5995618,-5.2216674 92.9844419,-0.593256478 95.7367857,14.4674457 L96.7568144,20.0538066 C98.1365983,27.6050453 104.263995,33.395961 111.901207,34.3668757 L117.550374,35.0842578 C132.781455,37.0188846 138.452294,56.0712851 126.747971,65.9777843 L122.404902,69.6525668 C116.536125,74.6209419 114.569752,82.8060122 117.54604,89.8847583 L119.747915,95.1225118 C125.681708,109.24111 111.969112,123.665099 97.511,118.510896 L92.1479028,116.599318 C84.8993417,114.015014 76.8055728,116.409169 72.1446483,122.518441 L68.695911,127.038812 C59.4000685,139.221343 40.0151884,134.592932 37.2642894,119.53223 L36.2428159,113.945869 C34.863032,106.39463 28.7356356,100.603714 21.0998682,99.6342401 L15.4492558,98.9154175 C0.219620212,96.9807907 -5.45266415,77.9283902 6.25165975,68.021891 L10.5947282,64.3471085 C16.4635054,59.3801739 18.429878,51.1936631 15.4535902,44.114917 L13.25316,38.8771634 C7.31792207,24.7585654 21.0319626,10.3360164 35.4886303,15.4887789 L40.8517275,17.4003572 C48.1002886,19.9846614 56.1940575,17.5905067 60.854982,11.4812348 Z" id="Stroke-3" stroke="#1D1D1B" stroke-width="2"></path>
                        <path d="M98,70 C92.6013311,83.8256851 78.872916,92.690598 64.2449633,91.9577728 C50.8183192,91.2860163 38.8961985,82.6440755 34,70 L98,70 Z" id="Fill-5" fill="#FEFEFE"></path>
                        <path d="M98,70 C92.6013311,83.8256851 78.872916,92.690598 64.2449633,91.9577728 C50.8183192,91.2860163 38.8961985,82.6440755 34,70 L98,70 Z" id="Stroke-7" stroke="#1D1D1B" stroke-width="3" stroke-linecap="round" stroke-linejoin="round"></path>
                        <path d="M53,58 C53,60.2098408 51.2083936,62 49,62 C46.7901592,62 45,60.2098408 45,58 C45,55.7901592 46.7901592,54 49,54 C51.2083936,54 53,55.7901592 53,58" id="Fill-9" fill="#1D1D1B"></path>
                        <path d="M88,58 C88,60.2098408 86.2083936,62 84,62 C81.7901592,62 80,60.2098408 80,58 C80,55.7901592 81.7901592,54 84,54 C86.2083936,54 88,55.7901592 88,58" id="Fill-11" fill="#1D1D1B"></path>
                    </g>
                </g>
            </g>
        </g>
    </g>
</svg>