<?xml version="1.0" encoding="UTF-8"?>
<svg width="36.7705091px" height="36.7623054px" viewBox="0 0 36.7705091 36.7623054" version="1.1" xmlns="http://www.w3.org/2000/svg" xmlns:xlink="http://www.w3.org/1999/xlink">
    <title>instagram</title>
    <g id="Page-1" stroke="none" stroke-width="1" fill="none" fill-rule="evenodd">
        <g id="instagram" fill="#FFFFFF" fill-rule="nonzero">
            <path d="M18.3893576,8.95576259 C13.1721696,8.95576259 8.96396622,13.163966 8.96396622,18.3811527 C8.96396622,23.5983407 13.1721696,27.8065428 18.3893576,27.8065428 C23.6065456,27.8065428 27.8147477,23.5983407 27.8147477,18.3811527 C27.8147477,13.1639647 23.6065456,8.95576259 18.3893576,8.95576259 Z M18.3893576,24.5088881 C15.0178727,24.5088881 12.2616235,21.7608412 12.2616235,18.381154 C12.2616235,15.0014667 15.0096703,12.2534198 18.3893576,12.2534198 C21.7690436,12.2534198 24.5170905,15.0014667 24.5170905,18.381154 C24.5170905,21.7608412 21.76084,24.5088881 18.3893563,24.5088881 L18.3893576,24.5088881 Z M30.3987321,8.57021472 C30.3987321,7.35615322 29.4143571,6.37177822 28.2002956,6.37177822 C26.9862341,6.37177822 26.0018591,7.35615322 26.0018591,8.57021472 C26.0018591,9.78427872 26.9780305,10.7686537 28.2002956,10.7686537 C29.4143571,10.7686537 30.3987321,9.79248235 30.3987321,8.57021472 Z M36.6413107,10.8014657 C36.5018566,7.85654435 35.8292018,5.24794909 33.6717785,3.09873185 C31.5225587,0.949512094 28.913966,0.276857346 25.9690446,0.129199594 C22.9338883,-0.0430665314 13.8366232,-0.0430665314 10.801467,0.129199594 C7.86474797,0.268653721 5.25615397,0.941308469 3.09873185,3.09052822 C0.94130972,5.23974797 0.276856095,7.84834072 0.129199594,10.7932621 C-0.0430665314,13.8284183 -0.0430665314,22.9256835 0.129199594,25.9608397 C0.268652469,28.9057611 0.941308469,31.5143563 3.09873059,33.6635736 C5.25615272,35.8127908 7.85654309,36.4854481 10.8014657,36.6331058 C13.836622,36.805372 22.9338871,36.805372 25.9690433,36.6331058 C28.9139647,36.4936517 31.52256,35.820997 33.6717772,33.6635736 C35.820997,31.5143538 36.4936517,28.9057611 36.6413095,25.9608397 C36.8135756,22.9256835 36.8135756,13.8366207 36.6413095,10.8014657 L36.6413107,10.8014657 Z M32.7202142,29.2174813 C32.0803715,30.8252943 30.8416991,32.0639667 29.2256825,32.7120131 C26.8057606,33.6717797 21.0635731,33.4502943 18.3893538,33.4502943 C15.7151346,33.4502943 9.96474472,33.6635761 7.55302522,32.7120131 C5.94521222,32.0721703 4.70653984,30.833498 4.05849347,29.2174813 C3.09872809,26.7975595 3.32021222,21.055372 3.32021222,18.3811527 C3.32021222,15.7069335 3.10693046,9.95654485 4.05849347,7.54482409 C4.69833747,5.93701109 5.93700984,4.69833872 7.55302522,4.05029234 C9.97294709,3.09052822 15.7151346,3.31201109 18.3893538,3.31201109 C21.0635731,3.31201109 26.8139642,3.09872934 29.2256825,4.05029234 C30.8334955,4.69013759 32.0721678,5.92880747 32.7202142,7.54482409 C33.6799808,9.96474597 33.4584955,15.7069335 33.4584955,18.3811527 C33.4584955,21.055372 33.6799808,26.8057606 32.7202142,29.2174813 Z" id="Shape"></path>
        </g>
    </g>
</svg>