<?xml version="1.0" encoding="UTF-8"?>
<svg width="314px" height="78px" viewBox="0 0 314 78" version="1.1" xmlns="http://www.w3.org/2000/svg" xmlns:xlink="http://www.w3.org/1999/xlink">
    <title>logo-alterfood</title>
    <g id="Page-1" stroke="none" stroke-width="1" fill="none" fill-rule="evenodd">
        <g id="Artboard" transform="translate(-203.000000, -3787.000000)" fill="#FFFFFF" fill-rule="nonzero">
            <g id="alterfood" transform="translate(0.000000, 3711.000000)">
                <g id="logo-alterfood" transform="translate(203.000000, 76.000000)">
                    <g id="Group">
                        <path d="M24.9183486,36.9695122 L11.9550459,36.9695122 L9.21834862,46.2835366 L0,46.2835366 L14.6917431,0.429878049 L22.0376147,0.429878049 L36.7293578,46.2835366 L27.5110092,46.2835366 L24.9183486,36.9695122 Z M22.9018349,29.6615854 L18.5807339,14.1859756 L14.259633,29.6615854 L22.9018349,29.6615854 Z" id="Shape"></path>
                        <path d="M74.0348624,41.125 C71.8743119,44.1341463 67.8412844,46.8567073 62.5119266,46.8567073 C53.1495413,46.8567073 48.2522936,41.2682927 48.2522936,30.3780488 L48.2522936,8.31097561 L33.5605505,8.31097561 L33.5605505,0.573170732 L56.7504587,0.573170732 L56.7504587,31.2378049 C56.7504587,36.6829268 58.9110092,39.1189024 62.3678899,39.1189024 C64.6724771,39.1189024 66.112844,38.1158537 67.2651376,36.5396341 L74.0348624,41.125 Z" id="Path"></path>
                        <path d="M87.1422018,22.9268293 L87.1422018,33.6737805 C87.1422018,39.5487805 93.7678899,40.1219512 97.6568807,38.1158537 L100.825688,44.5640244 C98.6651376,45.9969512 96.2165138,46.8567073 91.6073394,46.8567073 C83.3972477,46.8567073 78.7880734,40.8384146 78.7880734,33.2439024 L78.7880734,22.9268293 L70.433945,22.9268293 L70.433945,15.0457317 L78.7880734,15.0457317 L78.7880734,4.1554878 L87.1422018,1.57621951 L87.1422018,15.1890244 L100.825688,15.1890244 L100.825688,22.9268293 L87.1422018,22.9268293 Z" id="Path"></path>
                        <path d="M136.258716,33.8170732 L114.941284,33.8170732 C115.805505,36.8262195 118.254128,38.9756098 122.287156,38.9756098 C125.16789,38.9756098 127.616514,37.5426829 129.056881,36.1097561 L134.530275,41.125 C132.081651,44.5640244 127.040367,46.8567073 122.287156,46.8567073 C112.492661,46.8567073 106.299083,39.6920732 106.299083,30.6646341 C106.299083,21.6371951 112.06055,14.472561 121.999083,14.472561 C127.76055,14.472561 136.690826,17.9115854 136.690826,30.0914634 C136.546789,31.3810976 136.402752,32.527439 136.258716,33.8170732 Z M114.797248,27.6554878 L128.192661,27.6554878 C127.904587,25.0762195 125.744037,22.4969512 121.711009,22.4969512 C117.822018,22.3536585 115.661468,24.5030488 114.797248,27.6554878 Z" id="Shape"></path>
                        <path d="M171.691743,20.9207317 L164.057798,25.6493902 C162.905505,23.5 161.465138,22.6402439 159.448624,22.6402439 C155.70367,22.6402439 152.822936,27.6554878 152.822936,33.5304878 L152.822936,46.2835366 L144.468807,46.2835366 L144.468807,15.1890244 L152.822936,15.1890244 L152.822936,20.777439 C154.407339,17.195122 158.008257,14.6158537 162.041284,14.6158537 C166.362385,14.6158537 169.531193,16.9085366 171.691743,20.9207317 Z" id="Path"></path>
                        <path d="M184.655046,15.1890244 L184.655046,13.6128049 C184.655046,6.01829268 189.26422,0 197.474312,0 C202.083486,0 204.53211,0.859756098 206.692661,2.29268293 L203.523853,8.74085366 C199.778899,6.7347561 193.009174,7.30792683 193.009174,13.1829268 L193.009174,15.0457317 L206.692661,15.0457317 L206.692661,22.9268293 L193.009174,22.9268293 L193.009174,46.4268293 L184.655046,46.4268293 L184.655046,22.9268293 L177.309174,22.9268293 L177.309174,15.0457317 L184.655046,15.0457317 L184.655046,15.1890244 Z" id="Path"></path>
                        <path d="M242.125688,30.8079268 C242.125688,39.6920732 235.211927,47 226.425688,47 C217.063303,47 210.725688,39.8353659 210.725688,30.8079268 C210.725688,21.7804878 216.775229,14.6158537 226.425688,14.6158537 C235.211927,14.6158537 242.125688,21.7804878 242.125688,30.8079268 Z M233.77156,30.8079268 C233.77156,26.222561 230.602752,22.4969512 226.425688,22.4969512 C222.248624,22.4969512 219.079817,26.222561 219.079817,30.8079268 C219.079817,35.3932927 222.248624,39.1189024 226.425688,39.1189024 C230.602752,39.1189024 233.77156,35.3932927 233.77156,30.8079268 Z" id="Shape"></path>
                        <path d="M278.134862,30.8079268 C278.134862,39.6920732 271.221101,47 262.434862,47 C253.072477,47 246.734862,39.8353659 246.734862,30.8079268 C246.734862,21.7804878 252.784404,14.6158537 262.434862,14.6158537 C271.365138,14.6158537 278.134862,21.7804878 278.134862,30.8079268 Z M269.780734,30.8079268 C269.780734,26.222561 266.611927,22.4969512 262.434862,22.4969512 C258.257798,22.4969512 255.088991,26.222561 255.088991,30.8079268 C255.088991,35.3932927 258.257798,39.1189024 262.434862,39.1189024 C266.611927,39.1189024 269.780734,35.3932927 269.780734,30.8079268 Z" id="Shape"></path>
                        <path d="M314,0.573170732 L314,46.4268293 L305.645872,46.4268293 L305.645872,42.8445122 C303.917431,45.2804878 300.748624,47 297.00367,47 C288.793578,47 282.6,40.1219512 282.6,30.8079268 C282.6,21.4939024 288.793578,14.6158537 297.00367,14.6158537 C300.748624,14.6158537 303.917431,16.3353659 305.645872,18.6280488 L305.645872,0.573170732 L314,0.573170732 Z M305.645872,30.8079268 C305.645872,26.222561 302.333028,22.4969512 298.3,22.4969512 C294.266972,22.4969512 290.954128,26.222561 290.954128,30.8079268 C290.954128,35.3932927 294.266972,39.1189024 298.3,39.1189024 C302.333028,39.1189024 305.645872,35.3932927 305.645872,30.8079268 Z" id="Shape"></path>
                        <path d="M33.9926606,17.7682927 C33.9926606,14.902439 36.2972477,12.6097561 39.1779817,12.6097561 C42.0587156,12.6097561 44.3633028,14.902439 44.3633028,17.7682927 C44.3633028,20.6341463 42.2027523,22.9268293 39.1779817,22.9268293 C36.2972477,22.9268293 33.9926606,20.777439 33.9926606,17.7682927 Z" id="Path"></path>
                    </g>
                    <g id="Group" transform="translate(12.000000, 56.000000)">
                        <path d="M11.3640873,14.3733333 C10.6448413,15.4 9.35019841,16.28 7.48015873,16.28 C4.31547619,16.28 2.73313492,14.3733333 2.73313492,10.7066667 L2.73313492,3.08 L0,3.08 L0,0.44 L5.61011905,0.44 L5.61011905,10.8533333 C5.61011905,12.76 6.32936508,13.64 7.48015873,13.64 C8.19940476,13.64 8.77480159,13.3466667 9.0625,12.76 L11.3640873,14.3733333 Z" id="Path"></path>
                        <polygon id="Path" points="17.405754 0.44 20.1388889 0.44 19.1319444 5.42666667 17.405754 5.42666667"></polygon>
                        <path d="M34.6676587,16.1333333 L34.5238095,14.8133333 C33.8045635,15.6933333 32.2222222,16.28 30.9275794,16.28 C28.4821429,16.28 27.1875,14.6666667 27.1875,12.76 C27.1875,9.97333333 30.639881,8.50666667 34.0922619,9.68 C33.9484127,8.36 33.3730159,7.77333333 31.7906746,7.77333333 C30.7837302,7.77333333 29.9206349,8.06666667 29.3452381,8.36 L28.3382937,6.30666667 C29.2013889,5.72 30.3521825,5.13333333 32.2222222,5.13333333 C34.8115079,5.13333333 36.969246,6.6 36.969246,10.56 L36.969246,15.9866667 L34.6676587,16.1333333 L34.6676587,16.1333333 Z M29.9206349,12.76 C29.9206349,13.64 30.639881,14.08 31.6468254,14.08 C32.6537698,14.08 33.8045635,13.2 34.0922619,11.7333333 C31.9345238,10.8533333 29.9206349,11.44 29.9206349,12.76 Z" id="Shape"></path>
                        <path d="M51.2103175,14.3733333 C50.4910714,15.4 49.1964286,16.28 47.3263889,16.28 C44.1617063,16.28 42.5793651,14.3733333 42.5793651,10.7066667 L42.5793651,3.08 L39.8462302,3.08 L39.8462302,0.44 L45.4563492,0.44 L45.4563492,10.8533333 C45.4563492,12.76 46.1755952,13.64 47.3263889,13.64 C48.0456349,13.64 48.6210317,13.3466667 48.9087302,12.76 L51.2103175,14.3733333 Z" id="Path"></path>
                        <path d="M63.5813492,13.4933333 L63.5813492,16.1333333 L54.5188492,16.1333333 L54.5188492,13.4933333 L57.6835317,13.4933333 L57.6835317,8.21333333 L54.9503968,8.21333333 L54.9503968,5.57333333 L60.5605159,5.57333333 L60.5605159,13.64 L63.5813492,13.4933333 L63.5813492,13.4933333 Z M57.3958333,1.76 C57.3958333,0.733333333 58.1150794,0 59.1220238,0 C60.1289683,0 60.8482143,0.733333333 60.8482143,1.76 C60.8482143,2.78666667 60.1289683,3.52 59.1220238,3.52 C58.1150794,3.52 57.3958333,2.78666667 57.3958333,1.76 Z" id="Shape"></path>
                        <path d="M77.9662698,9.82666667 L77.9662698,16.1333333 L75.2331349,16.1333333 L75.2331349,9.82666667 C75.2331349,8.06666667 74.8015873,7.92 74.3700397,7.92 C73.9384921,7.92 73.5069444,8.21333333 73.5069444,10.2666667 L73.5069444,16.1333333 L70.7738095,16.1333333 L70.7738095,9.82666667 C70.7738095,8.06666667 70.4861111,7.92 70.0545635,7.92 C69.6230159,7.92 69.047619,8.21333333 69.047619,10.2666667 L69.047619,16.1333333 L66.3144841,16.1333333 L66.3144841,5.42666667 L69.047619,5.42666667 L69.047619,6.6 C69.4791667,5.72 70.0545635,5.28 70.9176587,5.28 C71.9246032,5.28 72.6438492,6.01333333 72.9315476,6.74666667 C73.3630952,5.86666667 74.0823413,5.28 75.2331349,5.28 C76.9593254,5.28 77.9662698,6.45333333 77.9662698,9.82666667 Z" id="Path"></path>
                        <path d="M90.3373016,11.88 L83.1448413,11.88 C83.4325397,12.9066667 84.2956349,13.64 85.5902778,13.64 C86.5972222,13.64 87.3164683,13.2 87.8918651,12.6133333 L89.7619048,14.3733333 C88.8988095,15.5466667 87.3164683,16.28 85.734127,16.28 C82.4255952,16.28 80.4117063,13.7866667 80.4117063,10.7066667 C80.4117063,7.62666667 82.281746,5.13333333 85.5902778,5.13333333 C87.4603175,5.13333333 90.4811508,6.30666667 90.4811508,10.4133333 C90.4811508,11 90.3373016,11.44 90.3373016,11.88 Z M83.1448413,9.68 L87.6041667,9.68 C87.4603175,8.8 86.7410714,7.92 85.4464286,7.92 C84.1517857,7.92 83.4325397,8.65333333 83.1448413,9.68 Z" id="Shape"></path>
                        <path d="M103.427579,9.97333333 L103.427579,15.9866667 L100.694444,15.9866667 L100.694444,9.97333333 C100.694444,8.21333333 99.6875,7.77333333 98.8244048,7.77333333 C97.9613095,7.77333333 96.9543651,8.50666667 96.9543651,10.2666667 L96.9543651,15.9866667 L93.9335317,15.9866667 L93.9335317,5.28 L96.6666667,5.28 L96.6666667,6.45333333 C97.0982143,5.86666667 97.9613095,5.13333333 99.2559524,5.13333333 C101.55754,5.28 103.427579,6.74666667 103.427579,9.97333333 Z" id="Path"></path>
                        <path d="M111.914683,8.06666667 L111.914683,11.7333333 C111.914683,13.7866667 114.072421,13.9333333 115.367063,13.2 L116.374008,15.4 C115.654762,15.84 114.791667,16.1333333 113.353175,16.1333333 C110.62004,16.1333333 109.037698,14.08 109.037698,11.44 L109.037698,7.92 L106.592262,7.92 L106.592262,5.28 L109.037698,5.28 L109.037698,1.46666667 L111.770833,0.586666667 L111.770833,5.28 L116.374008,5.28 L116.374008,7.92 L111.914683,8.06666667 L111.914683,8.06666667 Z" id="Path"></path>
                        <path d="M127.738095,16.1333333 L127.594246,14.8133333 C126.875,15.6933333 125.292659,16.28 123.998016,16.28 C121.552579,16.28 120.257937,14.6666667 120.257937,12.76 C120.257937,9.97333333 123.710317,8.50666667 127.162698,9.68 C127.018849,8.36 126.443452,7.77333333 125.00496,7.77333333 C123.998016,7.77333333 123.134921,8.06666667 122.559524,8.36 L121.552579,6.30666667 C122.415675,5.72 123.566468,5.13333333 125.436508,5.13333333 C128.025794,5.13333333 130.183532,6.6 130.183532,10.56 L130.183532,15.9866667 L127.738095,16.1333333 L127.738095,16.1333333 Z M122.991071,12.76 C122.991071,13.64 123.710317,14.08 124.717262,14.08 C125.724206,14.08 126.875,13.2 127.162698,11.7333333 C125.00496,10.8533333 122.991071,11.44 122.991071,12.76 Z" id="Shape"></path>
                        <path d="M138.526786,8.06666667 L138.526786,11.7333333 C138.526786,13.7866667 140.684524,13.9333333 141.979167,13.2 L142.986111,15.4 C142.266865,15.84 141.40377,16.1333333 139.965278,16.1333333 C137.232143,16.1333333 135.649802,14.08 135.649802,11.44 L135.649802,7.92 L133.204365,7.92 L133.204365,5.28 L135.649802,5.28 L135.649802,1.46666667 L138.382937,0.586666667 L138.382937,5.28 L142.986111,5.28 L142.986111,7.92 L138.526786,8.06666667 L138.526786,8.06666667 Z" id="Path"></path>
                        <path d="M156.795635,13.4933333 L156.795635,16.1333333 L147.733135,16.1333333 L147.733135,13.4933333 L150.897817,13.4933333 L150.897817,8.21333333 L148.164683,8.21333333 L148.164683,5.57333333 L153.774802,5.57333333 L153.774802,13.64 L156.795635,13.4933333 L156.795635,13.4933333 Z M150.46627,1.76 C150.46627,0.733333333 151.185516,0 152.19246,0 C153.199405,0 153.918651,0.733333333 153.918651,1.76 C153.918651,2.78666667 153.199405,3.52 152.19246,3.52 C151.185516,3.66666667 150.46627,2.78666667 150.46627,1.76 Z" id="Shape"></path>
                        <path d="M170.46131,10.7066667 C170.46131,13.7866667 168.159722,16.28 165.282738,16.28 C162.118056,16.28 160.104167,13.7866667 160.104167,10.7066667 C160.104167,7.62666667 162.118056,5.13333333 165.282738,5.13333333 C168.159722,5.28 170.46131,7.62666667 170.46131,10.7066667 Z M167.584325,10.7066667 C167.584325,9.09333333 166.577381,7.92 165.138889,7.92 C163.700397,7.92 162.693452,9.24 162.693452,10.7066667 C162.693452,12.1733333 163.700397,13.4933333 165.138889,13.4933333 C166.577381,13.64 167.584325,12.32 167.584325,10.7066667 Z" id="Shape"></path>
                        <path d="M183.12004,9.97333333 L183.12004,15.9866667 L180.386905,15.9866667 L180.386905,9.97333333 C180.386905,8.21333333 179.37996,7.77333333 178.516865,7.77333333 C177.65377,7.77333333 176.646825,8.50666667 176.646825,10.2666667 L176.646825,15.9866667 L173.91369,15.9866667 L173.91369,5.28 L176.646825,5.28 L176.646825,6.45333333 C177.078373,5.86666667 177.941468,5.13333333 179.236111,5.13333333 C181.393849,5.28 183.12004,6.74666667 183.12004,9.97333333 Z" id="Path"></path>
                        <path d="M210.019841,11.88 L202.827381,11.88 C203.115079,12.9066667 203.978175,13.64 205.272817,13.64 C206.279762,13.64 206.999008,13.2 207.574405,12.6133333 L209.444444,14.3733333 C208.581349,15.5466667 206.999008,16.28 205.416667,16.28 C202.108135,16.28 200.094246,13.7866667 200.094246,10.7066667 C200.094246,7.62666667 201.964286,5.13333333 205.272817,5.13333333 C207.142857,5.13333333 210.16369,6.30666667 210.16369,10.4133333 C210.16369,11 210.019841,11.44 210.019841,11.88 Z M202.827381,9.68 L207.286706,9.68 C207.142857,8.8 206.423611,7.92 205.128968,7.92 C203.834325,7.92 203.115079,8.65333333 202.827381,9.68 Z" id="Shape"></path>
                        <path d="M223.110119,9.97333333 L223.110119,15.9866667 L220.376984,15.9866667 L220.376984,9.97333333 C220.376984,8.21333333 219.37004,7.77333333 218.506944,7.77333333 C217.643849,7.77333333 216.636905,8.50666667 216.636905,10.2666667 L216.636905,15.9866667 L213.90377,15.9866667 L213.90377,5.28 L216.636905,5.28 L216.636905,6.45333333 C217.068452,5.86666667 217.931548,5.13333333 219.22619,5.13333333 C221.240079,5.28 223.110119,6.74666667 223.110119,9.97333333 Z" id="Path"></path>
                        <path d="M236.775794,17.8933333 C236.775794,20.3866667 234.618056,22 231.597222,22 C228.28869,22 226.418651,20.3866667 226.418651,17.8933333 C226.418651,16.4266667 227.137897,15.4 228.000992,14.8133333 C227.713294,14.3733333 227.425595,12.9066667 228.28869,11.7333333 C227.569444,11 227.281746,10.12 227.281746,9.09333333 C227.281746,6.89333333 229.007937,5.13333333 231.597222,5.13333333 C232.460317,5.13333333 233.323413,5.42666667 234.042659,5.72 L235.481151,4.4 L237.063492,6.16 L235.625,7.48 C235.912698,7.92 235.912698,8.50666667 235.912698,8.94666667 C235.912698,11.1466667 234.042659,12.76 231.597222,12.76 C231.165675,12.76 230.734127,12.76 230.446429,12.6133333 C230.302579,13.0533333 230.446429,13.64 232.02877,13.7866667 C234.761905,14.08 236.775794,15.2533333 236.775794,17.8933333 Z M233.89881,17.8933333 C233.89881,17.0133333 233.179563,16.5733333 231.741071,16.5733333 C231.021825,16.5733333 230.15873,16.5733333 229.871032,16.4266667 C229.295635,16.72 229.007937,17.16 229.007937,17.7466667 C229.007937,18.6266667 229.727183,19.36 231.453373,19.36 C233.035714,19.36 233.89881,18.6266667 233.89881,17.8933333 Z M229.871032,9.09333333 C229.871032,9.82666667 230.590278,10.4133333 231.453373,10.4133333 C232.316468,10.4133333 233.035714,9.82666667 233.035714,9.09333333 C233.035714,8.36 232.316468,7.77333333 231.453373,7.77333333 C230.590278,7.92 229.871032,8.50666667 229.871032,9.09333333 Z" id="Shape"></path>
                        <path d="M247.420635,16.1333333 L247.276786,14.8133333 C246.55754,15.6933333 244.975198,16.28 243.680556,16.28 C241.235119,16.28 239.940476,14.6666667 239.940476,12.76 C239.940476,9.97333333 243.392857,8.50666667 246.845238,9.68 C246.701389,8.36 246.125992,7.77333333 244.6875,7.77333333 C243.680556,7.77333333 242.81746,8.06666667 242.242063,8.36 L241.235119,6.30666667 C242.098214,5.72 243.249008,5.13333333 245.119048,5.13333333 C247.708333,5.13333333 249.866071,6.6 249.866071,10.56 L249.866071,15.9866667 L247.420635,16.1333333 L247.420635,16.1333333 Z M242.673611,12.76 C242.673611,13.64 243.392857,14.08 244.399802,14.08 C245.406746,14.08 246.55754,13.2 246.845238,11.7333333 C244.6875,10.8533333 242.673611,11.44 242.673611,12.76 Z" id="Shape"></path>
                        <path d="M263.244048,17.8933333 C263.244048,20.3866667 261.08631,22 258.065476,22 C254.756944,22 252.886905,20.3866667 252.886905,17.8933333 C252.886905,16.4266667 253.606151,15.4 254.469246,14.8133333 C254.181548,14.3733333 253.893849,12.9066667 254.756944,11.7333333 C254.037698,11 253.75,10.12 253.75,9.09333333 C253.75,6.89333333 255.47619,5.13333333 258.065476,5.13333333 C258.928571,5.13333333 259.791667,5.42666667 260.510913,5.72 L261.949405,4.4 L263.531746,6.16 L262.093254,7.48 C262.380952,7.92 262.380952,8.50666667 262.380952,8.94666667 C262.380952,11.1466667 260.510913,12.76 258.065476,12.76 C257.633929,12.76 257.202381,12.76 256.914683,12.6133333 C256.770833,13.0533333 256.914683,13.64 258.497024,13.7866667 C261.374008,14.08 263.244048,15.2533333 263.244048,17.8933333 Z M260.510913,17.8933333 C260.510913,17.0133333 259.791667,16.5733333 258.353175,16.5733333 C257.633929,16.5733333 256.770833,16.5733333 256.483135,16.4266667 C255.907738,16.72 255.62004,17.16 255.62004,17.7466667 C255.62004,18.6266667 256.339286,19.36 258.065476,19.36 C259.647817,19.36 260.510913,18.6266667 260.510913,17.8933333 Z M256.483135,9.09333333 C256.483135,9.82666667 257.202381,10.4133333 258.065476,10.4133333 C258.928571,10.4133333 259.647817,9.82666667 259.647817,9.09333333 C259.647817,8.36 258.928571,7.77333333 258.065476,7.77333333 C257.202381,7.77333333 256.483135,8.50666667 256.483135,9.09333333 Z" id="Shape"></path>
                        <path d="M276.478175,11.88 L269.285714,11.88 C269.573413,12.9066667 270.436508,13.64 271.731151,13.64 C272.738095,13.64 273.457341,13.2 274.032738,12.6133333 L275.902778,14.3733333 C275.039683,15.5466667 273.457341,16.28 271.875,16.28 C268.566468,16.28 266.552579,13.7866667 266.552579,10.7066667 C266.552579,7.62666667 268.422619,5.13333333 271.731151,5.13333333 C273.60119,5.13333333 276.622024,6.30666667 276.622024,10.4133333 C276.622024,11 276.622024,11.44 276.478175,11.88 Z M269.285714,9.68 L273.74504,9.68 C273.60119,8.8 272.881944,7.92 271.587302,7.92 C270.292659,7.92 269.573413,8.65333333 269.285714,9.68 Z M271.875,3.96 L270.14881,3.96 L271.587302,0.44 L274.032738,0.44 L271.875,3.96 Z" id="Shape"></path>
                        <path d="M289.856151,11.88 L282.66369,11.88 C282.951389,12.9066667 283.814484,13.64 285.109127,13.64 C286.116071,13.64 286.835317,13.2 287.410714,12.6133333 L289.280754,14.3733333 C288.417659,15.5466667 286.835317,16.28 285.252976,16.28 C281.944444,16.28 279.930556,13.7866667 279.930556,10.7066667 C279.930556,7.62666667 281.800595,5.13333333 285.109127,5.13333333 C286.979167,5.13333333 290,6.30666667 290,10.4133333 C289.856151,11 289.856151,11.44 289.856151,11.88 Z M282.66369,9.68 L287.123016,9.68 C286.979167,8.8 286.259921,7.92 284.965278,7.92 C283.670635,7.92 282.951389,8.65333333 282.66369,9.68 Z" id="Shape"></path>
                    </g>
                </g>
            </g>
        </g>
    </g>
</svg>