<?xml version="1.0" encoding="UTF-8"?>
<svg width="133px" height="33px" viewBox="0 0 133 33" version="1.1" xmlns="http://www.w3.org/2000/svg" xmlns:xlink="http://www.w3.org/1999/xlink">
    <title>logo-alterfood</title>
    <g id="Page-1" stroke="none" stroke-width="1" fill="none" fill-rule="evenodd">
        <g id="Artboard-produit" transform="translate(-843.000000, -1427.000000)" fill="#000000" fill-rule="nonzero">
            <g id="thé-noir-pêche" transform="translate(148.000000, 383.000000)">
                <g id="Group-7" transform="translate(695.000000, 1032.000000)">
                    <g id="logo-alterfood" transform="translate(0.000000, 12.000000)">
                        <g id="Group">
                            <path d="M10.5545872,15.7317073 L5.06376147,15.7317073 L3.90458716,19.695122 L0,19.695122 L6.22293578,0.182926829 L9.33440367,0.182926829 L15.5573394,19.695122 L11.6527523,19.695122 L10.5545872,15.7317073 Z M9.70045872,12.6219512 L7.87018349,6.03658537 L6.03990826,12.6219512 L9.70045872,12.6219512 Z" id="Shape"></path>
                            <path d="M31.3587156,17.5 C30.443578,18.7804878 28.7353211,19.9390244 26.4779817,19.9390244 C22.5123853,19.9390244 20.4380734,17.5609756 20.4380734,12.9268293 L20.4380734,3.53658537 L14.2151376,3.53658537 L14.2151376,0.243902439 L24.0376147,0.243902439 L24.0376147,13.2926829 C24.0376147,15.6097561 24.9527523,16.6463415 26.4169725,16.6463415 C27.3931193,16.6463415 28.003211,16.2195122 28.4912844,15.5487805 L31.3587156,17.5 Z" id="Path"></path>
                            <path d="M36.9105505,9.75609756 L36.9105505,14.3292683 C36.9105505,16.8292683 39.7169725,17.0731707 41.3642202,16.2195122 L42.706422,18.9634146 C41.7912844,19.5731707 40.7541284,19.9390244 38.8018349,19.9390244 C35.3243119,19.9390244 33.3720183,17.3780488 33.3720183,14.1463415 L33.3720183,9.75609756 L29.8334862,9.75609756 L29.8334862,6.40243902 L33.3720183,6.40243902 L33.3720183,1.76829268 L36.9105505,0.670731707 L36.9105505,6.46341463 L42.706422,6.46341463 L42.706422,9.75609756 L36.9105505,9.75609756 Z" id="Path"></path>
                            <path d="M57.7146789,14.3902439 L48.6853211,14.3902439 C49.0513761,15.6707317 50.0885321,16.5853659 51.796789,16.5853659 C53.0169725,16.5853659 54.0541284,15.9756098 54.6642202,15.3658537 L56.9825688,17.5 C55.9454128,18.9634146 53.8100917,19.9390244 51.796789,19.9390244 C47.6481651,19.9390244 45.0247706,16.8902439 45.0247706,13.0487805 C45.0247706,9.20731707 47.4651376,6.15853659 51.6747706,6.15853659 C54.1151376,6.15853659 57.8977064,7.62195122 57.8977064,12.804878 C57.8366972,13.3536585 57.7756881,13.8414634 57.7146789,14.3902439 Z M48.6243119,11.7682927 L54.2981651,11.7682927 C54.1761468,10.6707317 53.2610092,9.57317073 51.5527523,9.57317073 C49.9055046,9.51219512 48.990367,10.4268293 48.6243119,11.7682927 Z" id="Shape"></path>
                            <path d="M72.7229358,8.90243902 L69.4894495,10.9146341 C69.0013761,10 68.3912844,9.63414634 67.537156,9.63414634 C65.9509174,9.63414634 64.7307339,11.7682927 64.7307339,14.2682927 L64.7307339,19.695122 L61.1922018,19.695122 L61.1922018,6.46341463 L64.7307339,6.46341463 L64.7307339,8.84146341 C65.4018349,7.31707317 66.9270642,6.2195122 68.6353211,6.2195122 C70.4655963,6.2195122 71.8077982,7.19512195 72.7229358,8.90243902 Z" id="Path"></path>
                            <path d="M78.2137615,6.46341463 L78.2137615,5.79268293 C78.2137615,2.56097561 80.166055,0 83.643578,0 C85.5958716,0 86.6330275,0.365853659 87.5481651,0.975609756 L86.2059633,3.7195122 C84.6197248,2.86585366 81.7522936,3.1097561 81.7522936,5.6097561 L81.7522936,6.40243902 L87.5481651,6.40243902 L87.5481651,9.75609756 L81.7522936,9.75609756 L81.7522936,19.7560976 L78.2137615,19.7560976 L78.2137615,9.75609756 L75.1022936,9.75609756 L75.1022936,6.40243902 L78.2137615,6.40243902 L78.2137615,6.46341463 Z" id="Path"></path>
                            <path d="M102.556422,13.1097561 C102.556422,16.8902439 99.6279817,20 95.906422,20 C91.9408257,20 89.256422,16.9512195 89.256422,13.1097561 C89.256422,9.26829268 91.8188073,6.2195122 95.906422,6.2195122 C99.6279817,6.2195122 102.556422,9.26829268 102.556422,13.1097561 Z M99.0178899,13.1097561 C99.0178899,11.1585366 97.6756881,9.57317073 95.906422,9.57317073 C94.137156,9.57317073 92.7949541,11.1585366 92.7949541,13.1097561 C92.7949541,15.0609756 94.137156,16.6463415 95.906422,16.6463415 C97.6756881,16.6463415 99.0178899,15.0609756 99.0178899,13.1097561 Z" id="Shape"></path>
                            <path d="M117.808716,13.1097561 C117.808716,16.8902439 114.880275,20 111.158716,20 C107.193119,20 104.508716,16.9512195 104.508716,13.1097561 C104.508716,9.26829268 107.071101,6.2195122 111.158716,6.2195122 C114.941284,6.2195122 117.808716,9.26829268 117.808716,13.1097561 Z M114.270183,13.1097561 C114.270183,11.1585366 112.927982,9.57317073 111.158716,9.57317073 C109.38945,9.57317073 108.047248,11.1585366 108.047248,13.1097561 C108.047248,15.0609756 109.38945,16.6463415 111.158716,16.6463415 C112.927982,16.6463415 114.270183,15.0609756 114.270183,13.1097561 Z" id="Shape"></path>
                            <path d="M133,0.243902439 L133,19.7560976 L129.461468,19.7560976 L129.461468,18.2317073 C128.729358,19.2682927 127.387156,20 125.800917,20 C122.323394,20 119.7,17.0731707 119.7,13.1097561 C119.7,9.14634146 122.323394,6.2195122 125.800917,6.2195122 C127.387156,6.2195122 128.729358,6.95121951 129.461468,7.92682927 L129.461468,0.243902439 L133,0.243902439 Z M129.461468,13.1097561 C129.461468,11.1585366 128.058257,9.57317073 126.35,9.57317073 C124.641743,9.57317073 123.238532,11.1585366 123.238532,13.1097561 C123.238532,15.0609756 124.641743,16.6463415 126.35,16.6463415 C128.058257,16.6463415 129.461468,15.0609756 129.461468,13.1097561 Z" id="Shape"></path>
                            <path d="M14.3981651,7.56097561 C14.3981651,6.34146341 15.3743119,5.36585366 16.5944954,5.36585366 C17.8146789,5.36585366 18.7908257,6.34146341 18.7908257,7.56097561 C18.7908257,8.7804878 17.8756881,9.75609756 16.5944954,9.75609756 C15.3743119,9.75609756 14.3981651,8.84146341 14.3981651,7.56097561 Z" id="Path"></path>
                        </g>
                        <g id="Group" transform="translate(5.000000, 24.000000)">
                            <path d="M4.81994048,5.88 C4.51488095,6.3 3.96577381,6.66 3.17261905,6.66 C1.83035714,6.66 1.15922619,5.88 1.15922619,4.38 L1.15922619,1.26 L0,1.26 L0,0.18 L2.37946429,0.18 L2.37946429,4.44 C2.37946429,5.22 2.68452381,5.58 3.17261905,5.58 C3.47767857,5.58 3.72172619,5.46 3.84375,5.22 L4.81994048,5.88 Z" id="Path"></path>
                            <polygon id="Path" points="7.38244048 0.18 8.54166667 0.18 8.11458333 2.22 7.38244048 2.22"></polygon>
                            <path d="M14.703869,6.6 L14.6428571,6.06 C14.3377976,6.42 13.6666667,6.66 13.1175595,6.66 C12.0803571,6.66 11.53125,6 11.53125,5.22 C11.53125,4.08 12.9955357,3.48 14.4598214,3.96 C14.3988095,3.42 14.1547619,3.18 13.483631,3.18 C13.0565476,3.18 12.6904762,3.3 12.4464286,3.42 L12.0193452,2.58 C12.3854167,2.34 12.8735119,2.1 13.6666667,2.1 C14.764881,2.1 15.6800595,2.7 15.6800595,4.32 L15.6800595,6.54 L14.703869,6.6 L14.703869,6.6 Z M12.6904762,5.22 C12.6904762,5.58 12.9955357,5.76 13.422619,5.76 C13.8497024,5.76 14.3377976,5.4 14.4598214,4.8 C13.5446429,4.44 12.6904762,4.68 12.6904762,5.22 Z" id="Shape"></path>
                            <path d="M21.7202381,5.88 C21.4151786,6.3 20.8660714,6.66 20.0729167,6.66 C18.7306548,6.66 18.0595238,5.88 18.0595238,4.38 L18.0595238,1.26 L16.9002976,1.26 L16.9002976,0.18 L19.2797619,0.18 L19.2797619,4.44 C19.2797619,5.22 19.5848214,5.58 20.0729167,5.58 C20.3779762,5.58 20.6220238,5.46 20.7440476,5.22 L21.7202381,5.88 Z" id="Path"></path>
                            <path d="M26.9672619,5.52 L26.9672619,6.6 L23.1235119,6.6 L23.1235119,5.52 L24.4657738,5.52 L24.4657738,3.36 L23.3065476,3.36 L23.3065476,2.28 L25.6860119,2.28 L25.6860119,5.58 L26.9672619,5.52 L26.9672619,5.52 Z M24.34375,0.72 C24.34375,0.3 24.6488095,0 25.0758929,0 C25.5029762,0 25.8080357,0.3 25.8080357,0.72 C25.8080357,1.14 25.5029762,1.44 25.0758929,1.44 C24.6488095,1.44 24.34375,1.14 24.34375,0.72 Z" id="Shape"></path>
                            <path d="M33.0684524,4.02 L33.0684524,6.6 L31.9092262,6.6 L31.9092262,4.02 C31.9092262,3.3 31.7261905,3.24 31.5431548,3.24 C31.360119,3.24 31.1770833,3.36 31.1770833,4.2 L31.1770833,6.6 L30.0178571,6.6 L30.0178571,4.02 C30.0178571,3.3 29.8958333,3.24 29.7127976,3.24 C29.5297619,3.24 29.2857143,3.36 29.2857143,4.2 L29.2857143,6.6 L28.1264881,6.6 L28.1264881,2.22 L29.2857143,2.22 L29.2857143,2.7 C29.46875,2.34 29.7127976,2.16 30.078869,2.16 C30.5059524,2.16 30.8110119,2.46 30.9330357,2.76 C31.1160714,2.4 31.421131,2.16 31.9092262,2.16 C32.641369,2.16 33.0684524,2.64 33.0684524,4.02 Z" id="Path"></path>
                            <path d="M38.3154762,4.86 L35.264881,4.86 C35.3869048,5.28 35.7529762,5.58 36.3020833,5.58 C36.7291667,5.58 37.0342262,5.4 37.2782738,5.16 L38.0714286,5.88 C37.7053571,6.36 37.0342262,6.66 36.3630952,6.66 C34.9598214,6.66 34.1056548,5.64 34.1056548,4.38 C34.1056548,3.12 34.8988095,2.1 36.3020833,2.1 C37.0952381,2.1 38.3764881,2.58 38.3764881,4.26 C38.3764881,4.5 38.3154762,4.68 38.3154762,4.86 Z M35.264881,3.96 L37.15625,3.96 C37.0952381,3.6 36.7901786,3.24 36.2410714,3.24 C35.6919643,3.24 35.3869048,3.54 35.264881,3.96 Z" id="Shape"></path>
                            <path d="M43.8675595,4.08 L43.8675595,6.54 L42.7083333,6.54 L42.7083333,4.08 C42.7083333,3.36 42.28125,3.18 41.9151786,3.18 C41.5491071,3.18 41.1220238,3.48 41.1220238,4.2 L41.1220238,6.54 L39.8407738,6.54 L39.8407738,2.16 L41,2.16 L41,2.64 C41.1830357,2.4 41.5491071,2.1 42.0982143,2.1 C43.0744048,2.16 43.8675595,2.76 43.8675595,4.08 Z" id="Path"></path>
                            <path d="M47.4672619,3.3 L47.4672619,4.8 C47.4672619,5.64 48.3824405,5.7 48.9315476,5.4 L49.358631,6.3 C49.0535714,6.48 48.6875,6.6 48.077381,6.6 C46.9181548,6.6 46.2470238,5.76 46.2470238,4.68 L46.2470238,3.24 L45.2098214,3.24 L45.2098214,2.16 L46.2470238,2.16 L46.2470238,0.6 L47.40625,0.24 L47.40625,2.16 L49.358631,2.16 L49.358631,3.24 L47.4672619,3.3 L47.4672619,3.3 Z" id="Path"></path>
                            <path d="M54.1785714,6.6 L54.1175595,6.06 C53.8125,6.42 53.141369,6.66 52.5922619,6.66 C51.5550595,6.66 51.0059524,6 51.0059524,5.22 C51.0059524,4.08 52.4702381,3.48 53.9345238,3.96 C53.8735119,3.42 53.6294643,3.18 53.0193452,3.18 C52.5922619,3.18 52.2261905,3.3 51.9821429,3.42 L51.5550595,2.58 C51.921131,2.34 52.4092262,2.1 53.202381,2.1 C54.3005952,2.1 55.2157738,2.7 55.2157738,4.32 L55.2157738,6.54 L54.1785714,6.6 L54.1785714,6.6 Z M52.1651786,5.22 C52.1651786,5.58 52.4702381,5.76 52.8973214,5.76 C53.3244048,5.76 53.8125,5.4 53.9345238,4.8 C53.0193452,4.44 52.1651786,4.68 52.1651786,5.22 Z" id="Shape"></path>
                            <path d="M58.7544643,3.3 L58.7544643,4.8 C58.7544643,5.64 59.6696429,5.7 60.21875,5.4 L60.6458333,6.3 C60.3407738,6.48 59.9747024,6.6 59.3645833,6.6 C58.2053571,6.6 57.5342262,5.76 57.5342262,4.68 L57.5342262,3.24 L56.4970238,3.24 L56.4970238,2.16 L57.5342262,2.16 L57.5342262,0.6 L58.6934524,0.24 L58.6934524,2.16 L60.6458333,2.16 L60.6458333,3.24 L58.7544643,3.3 L58.7544643,3.3 Z" id="Path"></path>
                            <path d="M66.5029762,5.52 L66.5029762,6.6 L62.6592262,6.6 L62.6592262,5.52 L64.0014881,5.52 L64.0014881,3.36 L62.8422619,3.36 L62.8422619,2.28 L65.2217262,2.28 L65.2217262,5.58 L66.5029762,5.52 L66.5029762,5.52 Z M63.8184524,0.72 C63.8184524,0.3 64.1235119,0 64.5505952,0 C64.9776786,0 65.2827381,0.3 65.2827381,0.72 C65.2827381,1.14 64.9776786,1.44 64.5505952,1.44 C64.1235119,1.5 63.8184524,1.14 63.8184524,0.72 Z" id="Shape"></path>
                            <path d="M72.2991071,4.38 C72.2991071,5.64 71.3229167,6.66 70.1026786,6.66 C68.7604167,6.66 67.90625,5.64 67.90625,4.38 C67.90625,3.12 68.7604167,2.1 70.1026786,2.1 C71.3229167,2.16 72.2991071,3.12 72.2991071,4.38 Z M71.078869,4.38 C71.078869,3.72 70.6517857,3.24 70.0416667,3.24 C69.4315476,3.24 69.0044643,3.78 69.0044643,4.38 C69.0044643,4.98 69.4315476,5.52 70.0416667,5.52 C70.6517857,5.58 71.078869,5.04 71.078869,4.38 Z" id="Shape"></path>
                            <path d="M77.6681548,4.08 L77.6681548,6.54 L76.5089286,6.54 L76.5089286,4.08 C76.5089286,3.36 76.0818452,3.18 75.7157738,3.18 C75.3497024,3.18 74.922619,3.48 74.922619,4.2 L74.922619,6.54 L73.7633929,6.54 L73.7633929,2.16 L74.922619,2.16 L74.922619,2.64 C75.1056548,2.4 75.4717262,2.1 76.0208333,2.1 C76.9360119,2.16 77.6681548,2.76 77.6681548,4.08 Z" id="Path"></path>
                            <path d="M89.077381,4.86 L86.0267857,4.86 C86.1488095,5.28 86.514881,5.58 87.0639881,5.58 C87.4910714,5.58 87.796131,5.4 88.0401786,5.16 L88.8333333,5.88 C88.4672619,6.36 87.796131,6.66 87.125,6.66 C85.7217262,6.66 84.8675595,5.64 84.8675595,4.38 C84.8675595,3.12 85.6607143,2.1 87.0639881,2.1 C87.8571429,2.1 89.1383929,2.58 89.1383929,4.26 C89.1383929,4.5 89.077381,4.68 89.077381,4.86 Z M86.0267857,3.96 L87.9181548,3.96 C87.8571429,3.6 87.5520833,3.24 87.0029762,3.24 C86.453869,3.24 86.1488095,3.54 86.0267857,3.96 Z" id="Shape"></path>
                            <path d="M94.6294643,4.08 L94.6294643,6.54 L93.4702381,6.54 L93.4702381,4.08 C93.4702381,3.36 93.0431548,3.18 92.6770833,3.18 C92.3110119,3.18 91.8839286,3.48 91.8839286,4.2 L91.8839286,6.54 L90.7247024,6.54 L90.7247024,2.16 L91.8839286,2.16 L91.8839286,2.64 C92.0669643,2.4 92.4330357,2.1 92.9821429,2.1 C93.8363095,2.16 94.6294643,2.76 94.6294643,4.08 Z" id="Path"></path>
                            <path d="M100.425595,7.32 C100.425595,8.34 99.5104167,9 98.2291667,9 C96.8258929,9 96.0327381,8.34 96.0327381,7.32 C96.0327381,6.72 96.3377976,6.3 96.703869,6.06 C96.5818452,5.88 96.4598214,5.28 96.8258929,4.8 C96.5208333,4.5 96.3988095,4.14 96.3988095,3.72 C96.3988095,2.82 97.1309524,2.1 98.2291667,2.1 C98.5952381,2.1 98.9613095,2.22 99.266369,2.34 L99.8764881,1.8 L100.547619,2.52 L99.9375,3.06 C100.059524,3.24 100.059524,3.48 100.059524,3.66 C100.059524,4.56 99.266369,5.22 98.2291667,5.22 C98.046131,5.22 97.8630952,5.22 97.7410714,5.16 C97.6800595,5.34 97.7410714,5.58 98.4122024,5.64 C99.5714286,5.76 100.425595,6.24 100.425595,7.32 Z M99.2053571,7.32 C99.2053571,6.96 98.9002976,6.78 98.2901786,6.78 C97.985119,6.78 97.6190476,6.78 97.4970238,6.72 C97.2529762,6.84 97.1309524,7.02 97.1309524,7.26 C97.1309524,7.62 97.4360119,7.92 98.1681548,7.92 C98.8392857,7.92 99.2053571,7.62 99.2053571,7.32 Z M97.4970238,3.72 C97.4970238,4.02 97.8020833,4.26 98.1681548,4.26 C98.5342262,4.26 98.8392857,4.02 98.8392857,3.72 C98.8392857,3.42 98.5342262,3.18 98.1681548,3.18 C97.8020833,3.24 97.4970238,3.48 97.4970238,3.72 Z" id="Shape"></path>
                            <path d="M104.940476,6.6 L104.879464,6.06 C104.574405,6.42 103.903274,6.66 103.354167,6.66 C102.316964,6.66 101.767857,6 101.767857,5.22 C101.767857,4.08 103.232143,3.48 104.696429,3.96 C104.635417,3.42 104.391369,3.18 103.78125,3.18 C103.354167,3.18 102.988095,3.3 102.744048,3.42 L102.316964,2.58 C102.683036,2.34 103.171131,2.1 103.964286,2.1 C105.0625,2.1 105.977679,2.7 105.977679,4.32 L105.977679,6.54 L104.940476,6.6 L104.940476,6.6 Z M102.927083,5.22 C102.927083,5.58 103.232143,5.76 103.659226,5.76 C104.08631,5.76 104.574405,5.4 104.696429,4.8 C103.78125,4.44 102.927083,4.68 102.927083,5.22 Z" id="Shape"></path>
                            <path d="M111.651786,7.32 C111.651786,8.34 110.736607,9 109.455357,9 C108.052083,9 107.258929,8.34 107.258929,7.32 C107.258929,6.72 107.563988,6.3 107.93006,6.06 C107.808036,5.88 107.686012,5.28 108.052083,4.8 C107.747024,4.5 107.625,4.14 107.625,3.72 C107.625,2.82 108.357143,2.1 109.455357,2.1 C109.821429,2.1 110.1875,2.22 110.49256,2.34 L111.102679,1.8 L111.77381,2.52 L111.16369,3.06 C111.285714,3.24 111.285714,3.48 111.285714,3.66 C111.285714,4.56 110.49256,5.22 109.455357,5.22 C109.272321,5.22 109.089286,5.22 108.967262,5.16 C108.90625,5.34 108.967262,5.58 109.638393,5.64 C110.858631,5.76 111.651786,6.24 111.651786,7.32 Z M110.49256,7.32 C110.49256,6.96 110.1875,6.78 109.577381,6.78 C109.272321,6.78 108.90625,6.78 108.784226,6.72 C108.540179,6.84 108.418155,7.02 108.418155,7.26 C108.418155,7.62 108.723214,7.92 109.455357,7.92 C110.126488,7.92 110.49256,7.62 110.49256,7.32 Z M108.784226,3.72 C108.784226,4.02 109.089286,4.26 109.455357,4.26 C109.821429,4.26 110.126488,4.02 110.126488,3.72 C110.126488,3.42 109.821429,3.18 109.455357,3.18 C109.089286,3.18 108.784226,3.48 108.784226,3.72 Z" id="Shape"></path>
                            <path d="M117.264881,4.86 L114.214286,4.86 C114.33631,5.28 114.702381,5.58 115.251488,5.58 C115.678571,5.58 115.983631,5.4 116.227679,5.16 L117.020833,5.88 C116.654762,6.36 115.983631,6.66 115.3125,6.66 C113.909226,6.66 113.05506,5.64 113.05506,4.38 C113.05506,3.12 113.848214,2.1 115.251488,2.1 C116.044643,2.1 117.325893,2.58 117.325893,4.26 C117.325893,4.5 117.325893,4.68 117.264881,4.86 Z M114.214286,3.96 L116.105655,3.96 C116.044643,3.6 115.739583,3.24 115.190476,3.24 C114.641369,3.24 114.33631,3.54 114.214286,3.96 Z M115.3125,1.62 L114.580357,1.62 L115.190476,0.18 L116.227679,0.18 L115.3125,1.62 Z" id="Shape"></path>
                            <path d="M122.938988,4.86 L119.888393,4.86 C120.010417,5.28 120.376488,5.58 120.925595,5.58 C121.352679,5.58 121.657738,5.4 121.901786,5.16 L122.69494,5.88 C122.328869,6.36 121.657738,6.66 120.986607,6.66 C119.583333,6.66 118.729167,5.64 118.729167,4.38 C118.729167,3.12 119.522321,2.1 120.925595,2.1 C121.71875,2.1 123,2.58 123,4.26 C122.938988,4.5 122.938988,4.68 122.938988,4.86 Z M119.888393,3.96 L121.779762,3.96 C121.71875,3.6 121.41369,3.24 120.864583,3.24 C120.315476,3.24 120.010417,3.54 119.888393,3.96 Z" id="Shape"></path>
                        </g>
                    </g>
                </g>
            </g>
        </g>
    </g>
</svg>