<?xml version="1.0" encoding="UTF-8"?>
<svg width="23.9988281px" height="24.0035137px" viewBox="0 0 23.9988281 24.0035137" version="1.1" xmlns="http://www.w3.org/2000/svg" xmlns:xlink="http://www.w3.org/1999/xlink">
    <title>search copy</title>
    <g id="Page-1" stroke="none" stroke-width="1" fill="none" fill-rule="evenodd">
        <g id="search-copy" fill="#0F0F0F" fill-rule="nonzero">
            <path d="M19.5,9.75 C19.5,11.9015622 18.8015635,13.8890619 17.6250007,15.5015631 L23.559376,21.4406247 C24.1453121,22.0265622 24.1453121,22.9781241 23.559376,23.5640616 C22.9734399,24.1499977 22.0218766,24.1499977 21.4359391,23.5640616 L15.5015638,17.625 C13.8890641,18.8062506 11.9015636,19.5 9.75000143,19.5 C4.36406279,19.5 0,15.1359372 0,9.75 C0,4.36406279 4.36406279,0 9.75000072,0 C15.1359379,0 19.5,4.36406279 19.5,9.75 Z M9.75000072,16.5 C13.4765632,16.5 16.5000007,13.4765625 16.5000007,9.75 C16.5000007,6.0234375 13.4765632,3 9.75000072,3 C6.02343822,3 3.00000072,6.0234375 3.00000072,9.75 C3.00000072,13.4765625 6.02343822,16.5 9.75000072,16.5 Z" id="Shape"></path>
        </g>
    </g>
</svg>