<?xml version="1.0" encoding="UTF-8"?>
<svg width="306.51943px" height="306.827293px" viewBox="0 0 306.51943 306.827293" version="1.1" xmlns="http://www.w3.org/2000/svg" xmlns:xlink="http://www.w3.org/1999/xlink">
    <title>Group 11 Copy</title>
    <g id="Page-1" stroke="none" stroke-width="1" fill="none" fill-rule="evenodd">
        <g id="Artboard" transform="translate(-456.179506, -1433.304131)">
            <g id="carousel" transform="translate(-22.243184, 1230.000000)">
                <g id="Group-6" transform="translate(0.000000, 206.810452)">
                    <g id="Group-11-Copy" transform="translate(631.682363, 149.907322) rotate(-19.000000) translate(-631.682363, -149.907322) translate(513.930890, 31.907322)">
                        <path d="M114.939157,40.9960028 C126.842391,25.3689127 151.664538,31.3052854 155.188887,50.6220538 L156.495024,57.7870875 C158.261823,67.4722621 166.107893,74.8996565 175.887268,76.144946 L183.120971,77.0650561 C202.624219,79.546397 209.885672,103.982894 194.898402,116.688912 L189.337146,121.402167 C181.822235,127.774575 179.304314,138.272699 183.115421,147.351857 L185.9349,154.069769 C193.533063,172.1782 175.97422,190.678324 157.460751,184.067574 L150.593358,181.615795 C141.311647,178.301181 130.947656,181.37191 124.979389,189.207626 L120.563315,195.005428 C108.660081,210.630671 83.8379337,204.694298 80.3154349,185.37753 L79.0074481,178.212496 C77.2406485,168.527321 69.3945783,161.099927 59.6170538,159.856485 L52.3815006,158.934527 C32.8801031,156.453186 25.6167992,132.016689 40.60407,119.310671 L46.1653261,114.597417 C53.6802371,108.226856 56.1981578,97.7268849 52.3870508,88.6477267 L49.5694217,81.9298147 C41.9694083,63.8213836 59.5301013,45.3231067 78.041721,51.9320097 L84.9091138,54.3837889 C94.1908244,57.6984022 104.554815,54.6276735 110.523083,46.7919571 L114.939157,40.9960028 Z" id="Fill-1" fill="#FEFEFE" transform="translate(117.751473, 118.000000) rotate(-32.000000) translate(-117.751473, -118.000000) "></path>
                        <path d="M110.523083,46.7919571 L114.939157,40.9960028 C126.842391,25.3689127 151.664538,31.3052854 155.188887,50.6220538 L156.495024,57.7870875 C158.261823,67.4722621 166.107893,74.8996565 175.887268,76.144946 L183.120971,77.0650561 C202.624219,79.546397 209.885672,103.982894 194.898402,116.688912 L189.337146,121.402167 C181.822235,127.774575 179.304314,138.272699 183.115421,147.351857 L185.9349,154.069769 C193.533063,172.1782 175.97422,190.678324 157.460751,184.067574 L150.593358,181.615795 C141.311647,178.301181 130.947656,181.37191 124.979389,189.207626 L120.563315,195.005428 C108.660081,210.630671 83.8379337,204.694298 80.3154349,185.37753 L79.0074481,178.212496 C77.2406485,168.527321 69.3945783,161.099927 59.6170538,159.856485 L52.3815006,158.934527 C32.8801031,156.453186 25.6167992,132.016689 40.60407,119.310671 L46.1653261,114.597417 C53.6802371,108.226856 56.1981578,97.7268849 52.3870508,88.6477267 L49.5694217,81.9298147 C41.9694083,63.8213836 59.5301013,45.3231067 78.041721,51.9320097 L84.9091138,54.3837889 C94.1908244,57.6984022 104.554815,54.6276735 110.523083,46.7919571 Z" id="Stroke-3" stroke="#1D1D1B" stroke-width="4" transform="translate(117.751473, 118.000000) rotate(-32.000000) translate(-117.751473, -118.000000) "></path>
                        <path d="M118.214258,144 C117.436649,144 116.660877,143.979777 115.877752,143.941169 C97.6379329,143.0109 81.5654936,131.158252 74.932832,113.742379 C74.3905273,112.319399 75.1056341,110.725442 76.5284945,110.183091 C77.9458399,109.637064 79.5433407,110.35407 80.0874837,111.778888 C85.9425356,127.152215 100.099445,137.613138 116.157177,138.433098 C133.777483,139.313727 149.952868,128.615641 156.420081,111.771534 C156.966062,110.352231 158.561725,109.644418 159.982747,110.18493 C161.403769,110.730957 162.11336,112.326753 161.567379,113.749733 C154.530287,132.079328 137.297867,144 118.214258,144" id="Fill-5" fill="#1D1D1B"></path>
                        <path d="M99.7514725,106 C99.7514725,108.762301 97.5119646,111 94.7514725,111 C91.9891715,111 89.7514725,108.762301 89.7514725,106 C89.7514725,103.237699 91.9891715,101 94.7514725,101 C97.5119646,101 99.7514725,103.237699 99.7514725,106" id="Fill-7" fill="#1D1D1B"></path>
                        <path d="M144.751473,106 C144.751473,108.762301 142.511965,111 139.751473,111 C136.989172,111 134.751473,108.762301 134.751473,106 C134.751473,103.237699 136.989172,101 139.751473,101 C142.511965,101 144.751473,103.237699 144.751473,106" id="Fill-9" fill="#1D1D1B"></path>
                    </g>
                </g>
            </g>
        </g>
    </g>
</svg>