<?xml version="1.0" encoding="UTF-8"?>
<svg width="41.999836px" height="34.1116269px" viewBox="0 0 41.999836 34.1116269" version="1.1" xmlns="http://www.w3.org/2000/svg" xmlns:xlink="http://www.w3.org/1999/xlink">
    <title>twitter</title>
    <g id="Page-1" stroke="none" stroke-width="1" fill="none" fill-rule="evenodd">
        <g id="twitter" fill="#FFFFFF" fill-rule="nonzero">
            <path d="M37.6826962,8.50122428 C37.7093573,8.87430274 37.7093573,9.24746132 37.7093573,9.62054229 C37.7093573,20.9999149 29.0482512,34.1116269 13.2182702,34.1116269 C8.34134871,34.1116269 3.81092584,32.6991313 0,30.2474638 C0.692918479,30.3273622 1.35909444,30.3540233 2.07867283,30.3540233 C6.10271645,30.3540233 9.80708277,28.9949301 12.7652121,26.6763983 C8.98094612,26.5964173 5.8096177,24.1180086 4.71696085,20.7068199 C5.25,20.7867182 5.78295779,20.8400381 6.34265685,20.8400381 C7.11547369,20.8400381 7.88837314,20.7333984 8.60786891,20.5469406 C4.66372365,19.7473812 1.705513,16.2829565 1.705513,12.0989522 L1.705513,11.992394 C2.8514083,12.6319914 4.18400556,13.0317298 5.5963372,13.0849682 C3.27780533,11.5392544 1.75883281,8.9009639 1.75883281,5.91617596 C1.75883281,4.31722248 2.18514973,2.85148716 2.93138802,1.57229233 C7.16871214,6.79563117 13.5380289,10.2067373 20.6800799,10.5798984 C20.5468617,9.94030094 20.4668807,9.27412498 20.4668807,8.60786641 C20.4668807,3.86416304 24.3044677,0 29.0747471,0 C31.5531583,0 33.7917092,1.03933454 35.3640817,2.71826899 C37.3094525,2.34519053 39.1749249,1.62561214 40.8272808,0.639597416 C40.1876008,2.63837063 38.8285076,4.31730509 37.0430161,5.38321817 C38.7752704,5.1967603 40.4542049,4.7169596 41.999836,4.05078363 C40.827446,5.75629663 39.3616281,7.27526915 37.6826962,8.50122678 L37.6826962,8.50122428 Z" id="Path"></path>
        </g>
    </g>
</svg>